<svg width="331" height="109" viewBox="0 0 331 109" fill="none" xmlns="http://www.w3.org/2000/svg">
<path d="M56.8492 35.6531C56.2714 37.116 54.621 38.7653 54.5563 40.7206C54.547 41.0074 56.0264 45.9028 56.1604 46.1658C56.8909 47.6239 60.0483 47.3227 61.449 47.8677C63.2566 48.5705 68.8503 54.2595 70.1817 56.0475C73.9494 61.1246 74.9849 66.2543 73.0294 72.4549L71.1895 66.7228C71.3236 69.4287 71.1664 71.8334 70.5839 74.4675C69.8442 77.8045 66.9827 81.6959 66.6498 84.3014C66.4556 85.836 67.1306 86.9165 67.0058 88.4128C66.8809 89.9092 65.7946 91.1665 65.6235 92.7633C64.87 99.81 70.0291 102.76 71.1849 108.793H63.5571C62.332 108.793 63.1087 103.768 62.8683 103.529C62.7296 103.396 61.449 103.615 61.0145 103.529V96.5974C61.0145 96.4492 60.5892 95.7895 60.5337 95.1823C60.0622 90.2152 59.9235 85.8552 55.9339 82.2505C57.4132 81.3948 58.666 83.6799 60.0807 83.6943C58.6383 81.8824 58.8047 77.1304 57.575 75.7727C56.9556 75.0842 54.8753 74.3145 53.8582 73.4014C50.9366 70.772 49.5589 65.891 49.9149 61.9421L49.0227 66.8662L44.3675 69.3522C44.4091 70.3705 49.2215 68.4678 49.4434 68.6351C50.5713 71.6517 49.6329 71.7617 47.2613 72.823C42.8558 74.7926 38.5611 74.9169 34.1832 72.7178C30.827 71.035 30.9611 69.6438 29.2275 66.8614C29.001 66.4933 28.8946 65.5085 28.1966 66.2447C28.0209 66.4312 27.2396 70.0932 26.7404 71.1975C22.2839 81.0171 16.8705 81.935 10.611 88.4606C7.63852 91.5585 5.20687 97.5105 6.01588 101.851C6.32561 103.52 9.78355 106.207 9.24267 108.793H1.61488C0.477643 108.793 1.11559 104.748 0.912187 103.864C0.828975 103.506 0.0985654 103.572 0.0107304 103.209C-0.211169 102.286 3.07572 85.9842 3.64896 84.6026C4.14823 83.4027 5.24385 83.2114 6.01126 82.2649C9.84364 77.5128 7.18547 71.0684 8.91444 65.1882C9.50155 63.1851 10.8006 61.1915 12.021 59.5613C7.31491 59.829 2.21122 59.1215 1.57326 53.3512C0.449895 43.2304 16.9814 41.3086 17.4668 31.9432C17.7396 26.6892 13.4772 29.1465 12.3724 26.4454C11.5449 24.4232 12.2429 21.5643 12.0257 19.3987C13.6899 20.1349 16.9306 21.1819 17.6795 22.8695C18.3821 24.4567 19.635 33.1623 19.4269 34.9455C18.5393 42.7189 2.02169 45.4774 5.43801 53.6954C5.88181 54.7615 7.58767 55.8706 8.66018 56.0953C12.132 56.8267 23.0282 53.8771 26.8236 52.6293C31.22 51.1855 34.4652 48.4988 37.4331 44.9563C44.1687 36.9199 48.565 21.7364 61.0237 22.7403C61.6293 27.7314 55.6103 25.1403 53.1648 28.2382C55.1989 28.3672 57.1636 27.478 59.1561 28.5011C59.512 29.027 57.6814 33.3392 57.3208 34.214C57.1128 34.716 57.0295 35.2228 56.8585 35.6482L56.8492 35.6531ZM43.9052 69.6008H42.0607V70.0693H43.9052V69.6008Z" fill="#F7BE45"/>
<path d="M57.3123 34.2188C58.4311 34.4722 58.2693 33.6308 58.616 32.9615C60.1184 30.0309 62.9892 23.859 62.4114 20.6034C62.0832 18.7533 55.3198 17.5629 54.5339 15.1008L54.3121 17.9644C51.15 14.9191 49.9064 11.1758 50.378 6.72979C50.4982 5.59677 52.4583 -1.69858 53.1425 1.96344C54.1364 7.2987 53.1979 10.454 58.6946 13.4323C65.1574 16.9366 65.8832 13.5327 70.8852 13.7001C75.8871 13.8674 78.1015 17.5342 84.458 15.1964C90.6712 12.9112 91.0549 7.77677 91.5079 1.92999C91.961 -3.91681 94.5683 5.19519 94.7578 7.21264C95.8673 19.0401 88.0408 20.5269 78.5823 20.8377C80.5147 24.7196 85.0913 21.6838 87.3843 21.9898C88.8359 22.181 94.1892 24.9204 92.451 26.8087C91.4894 27.8557 84.5967 30.1839 84.6013 30.6333C85.5351 31.7998 87.0792 32.6221 87.3704 34.214L87.8327 32.7846C88.7712 31.489 90.1118 41.3229 90.158 42.0879C90.8792 53.6572 87.3658 62.4536 78.5869 69.596C81.3329 60.4075 80.547 43.436 67.9496 44.2535C69.2671 40.3525 75.0689 41.7006 77.6438 38.7557C74.884 40.2521 71.4584 40.1134 68.6893 41.4425C66.5674 42.4608 64.806 45.2862 62.416 45.9459C57.5943 47.2797 57.1598 44.8894 55.5417 41.0313L56.8546 35.653C57.0257 35.2276 57.1089 34.7208 57.3169 34.2188H57.3123ZM73.4925 25.6184L69.771 25.8239L66.5627 28.4772L71.0608 28.6541L73.4925 25.6184ZM88.7481 25.6184C86.7602 25.2407 84.74 26.4215 82.9186 26.5267C82.0541 26.5793 81.0787 25.7426 80.4315 26.3259C82.4332 29.4094 86.6909 27.9657 88.7481 25.6136V25.6184Z" fill="#F7BE45"/>
<path d="M36.2772 108.798C35.1076 108.425 35.7871 103.692 35.0798 103.109C34.7054 102.803 33.3555 103.328 32.8701 102.999C32.7129 102.893 31.9363 100.178 31.5109 99.3844C30.2997 97.1375 24.8401 89.7369 24.572 88.3649C24.3639 87.3275 26.2039 79.9126 26.8326 79.4202C28.8944 77.7947 35.2093 80.7827 37.9045 80.5914C37.775 84.024 32.0195 86.9211 32.4402 90.258C33.1799 96.1431 43.3133 102.181 43.452 108.793H36.2865L36.2772 108.798Z" fill="#F7BE45"/>
<path d="M78.5953 91.573C77.3101 88.3126 79.1223 79.7982 83.1951 84.4163C82.3029 81.4236 84.8501 80.8451 85.6175 79.0333C86.3017 77.4269 86.0058 75.1131 87.3464 73.655C83.2228 74.7928 79.5291 77.4269 75.3593 78.4643C74.86 78.5886 73.0247 79.1862 73.0293 78.211C77.851 75.7633 81.6048 71.5706 84.7715 67.1675L88.2756 61.4785C88.2572 62.5303 87.1569 64.9397 87.5637 65.7764C88.7518 68.2193 93.6521 67.5022 92.6905 72.4932C92.2375 74.8406 88.9044 82.9104 87.5545 84.8705C86.5652 86.3095 79.9775 92.5579 78.586 91.5826L78.5953 91.573Z" fill="#F7BE45"/>
<mask id="path-5-outside-1_160_1543" maskUnits="userSpaceOnUse" x="117.771" y="25.9648" width="210" height="39" fill="black">
<rect fill="white" x="117.771" y="25.9648" width="210" height="39"/>
<path d="M145.022 26.9648C148.074 26.9648 150.627 27.0604 152.677 27.2529C154.745 27.4473 156.435 27.8989 157.713 28.6367C159.022 29.3926 159.944 30.5652 160.485 32.1152H160.484C161.033 33.644 161.296 35.7025 161.296 38.2617V38.7617H156.001V38.2617C156.001 36.3168 155.807 34.9102 155.453 34.001L155.449 33.9922V33.9912C155.389 33.8294 155.323 33.6782 155.25 33.5371C155.011 33.1037 154.709 32.7527 154.344 32.4834C154.19 32.3777 154.025 32.2876 153.848 32.2139L153.845 32.2129C153.062 31.8814 151.962 31.6878 150.517 31.6592C149.045 31.6299 147.213 31.6152 145.022 31.6152H135.671C133.006 31.6152 130.877 31.6659 129.281 31.7676C128.568 31.8134 127.945 31.8876 127.408 31.9834C126.99 32.0838 126.628 32.2027 126.322 32.3418C125.531 32.7013 125 33.2774 124.727 34.0684C124.468 34.8593 124.338 35.9448 124.338 37.3252C124.338 38.4901 124.431 39.4252 124.618 40.1299C124.67 40.3251 124.741 40.5069 124.828 40.6768C124.983 40.844 125.169 40.9913 125.391 41.1182L125.633 41.2354C126.239 41.499 127.135 41.7045 128.354 41.8311H128.355C129.753 41.9612 131.67 42.042 134.11 42.0713H134.111L147.446 42.2471C150.59 42.2912 153.118 42.4748 155.02 42.8037H155.019C156.93 43.117 158.422 43.6406 159.44 44.4141L159.631 44.5625C160.56 45.3215 161.176 46.3228 161.48 47.5449H161.481C161.809 48.7884 161.968 50.3378 161.968 52.1797C161.968 54.1859 161.77 55.8985 161.366 57.3057L161.367 57.3066C160.965 58.7449 160.17 59.9095 158.99 60.7832C157.813 61.6547 156.154 62.2527 154.057 62.6113C151.959 62.9699 149.22 63.1465 145.851 63.1465H135.38C132.31 63.1465 129.721 63.0146 127.62 62.7471C125.502 62.4774 123.767 61.9335 122.446 61.0889L122.44 61.085C121.112 60.2092 120.17 58.9164 119.603 57.2441C119.041 55.5882 118.771 53.4159 118.771 50.751V50.251H124.066V50.751C124.066 52.7994 124.238 54.3396 124.56 55.3984C124.873 56.4296 125.4 57.1279 126.119 57.5508C126.893 57.9825 128.009 58.2652 129.506 58.3652H129.505C131.043 58.4522 133 58.4961 135.38 58.4961H145.627C148.287 58.4961 150.377 58.4162 151.902 58.2578L152.452 58.1865C153.682 58.0059 154.562 57.7236 155.132 57.3672C155.765 56.9566 156.169 56.3791 156.35 55.6064L156.351 55.5986C156.56 54.7603 156.672 53.6252 156.672 52.1797C156.672 50.8944 156.568 49.9202 156.377 49.2363C156.209 48.6345 155.84 48.1959 155.232 47.9033L155.225 47.8994C154.585 47.5788 153.533 47.3494 152.015 47.248L152.01 47.2471C150.488 47.1309 148.396 47.0507 145.73 47.0068V47.0059L133.292 46.8311C130.207 46.7869 127.709 46.6033 125.808 46.2744C123.909 45.946 122.414 45.4222 121.372 44.6699L121.368 44.667C120.322 43.8953 119.616 42.8609 119.259 41.584L119.257 41.5791L119.258 41.5781C118.93 40.3492 118.771 38.8364 118.771 37.0518C118.771 35.099 118.99 33.4554 119.447 32.1387L119.448 32.1338H119.449C119.936 30.7789 120.808 29.7131 122.052 28.9512L122.055 28.9502C123.301 28.1967 125.017 27.6932 127.167 27.4102C129.317 27.1126 132.08 26.9648 135.447 26.9648H145.022ZM256.236 26.9648C258.935 26.9649 261.255 27.0899 263.192 27.3428L263.191 27.3438C265.139 27.5834 266.783 28.0497 268.105 28.7607L268.355 28.8994C269.59 29.6118 270.575 30.6078 271.303 31.8779C272.074 33.2246 272.603 34.9471 272.907 37.0234L273.014 37.8164C273.245 39.719 273.359 41.9873 273.359 44.6162V45.4951C273.359 49.1316 273.112 52.1094 272.609 54.415L272.61 54.416C272.12 56.7374 271.235 58.5683 269.921 59.8594L269.92 59.8584C268.625 61.1456 266.843 62.0018 264.614 62.4551L264.613 62.4541C262.405 62.9179 259.609 63.1465 256.236 63.1465H247.22C243.846 63.1465 241.05 62.9181 238.841 62.4541C236.611 62.0005 234.821 61.1451 233.512 59.8584L233.51 59.8564C232.213 58.5664 231.329 56.7379 230.823 54.4189L230.822 54.416C230.55 53.1297 230.356 51.6339 230.237 49.9307C230.121 48.7222 230.049 47.4329 230.049 46.1025V44.6777C230.049 43.1287 230.105 41.7823 230.202 40.5645C230.277 39.259 230.392 38.0781 230.548 37.0234C230.852 34.9472 231.381 33.2246 232.152 31.8779H232.153C232.929 30.5247 233.987 29.4817 235.325 28.7617L235.328 28.7607C236.664 28.0503 238.315 27.5835 240.264 27.3438V27.3428C242.201 27.0899 244.521 26.9648 247.22 26.9648H256.236ZM180.724 42.4453H211.226V27.6689H216.521V62.4434H211.226V46.9639H180.724V62.4434H175.428V27.6689H180.724V42.4453ZM310.457 27.6689C313.823 27.6689 316.549 27.8164 318.626 28.1143L318.627 28.1133C320.719 28.4113 322.364 28.9323 323.514 29.7119C324.669 30.4959 325.454 31.5747 325.859 32.9287C326.251 34.2373 326.44 35.8662 326.44 37.7998V38.6797C326.44 40.4758 326.218 42.0485 325.765 43.3877L325.766 43.3887C325.309 44.7657 324.419 45.88 323.126 46.7275L323.123 46.7305C321.956 47.481 320.322 48.0089 318.257 48.3457L325.396 61.708L325.79 62.4434H320.36L320.219 62.1797L313.049 48.7773C312.84 48.7839 312.625 48.7881 312.404 48.7881H292.597V62.4365L292.253 62.4238V62.4434H286.957V27.6689H310.457ZM247.22 31.6152C245.096 31.6152 243.314 31.6804 241.872 31.8105L241.867 31.8115C240.444 31.9257 239.318 32.2016 238.468 32.6191L238.465 32.6201C237.663 33.0078 237.038 33.6274 236.592 34.502C236.151 35.3957 235.833 36.6515 235.657 38.293C235.481 39.9396 235.392 42.0462 235.392 44.6162V45.4951C235.392 47.9769 235.481 50.0253 235.657 51.6426C235.833 53.253 236.151 54.5025 236.594 55.4131C237.042 56.306 237.672 56.9576 238.481 57.3887C239.332 57.8329 240.456 58.1369 241.877 58.2793C243.317 58.4235 245.097 58.4961 247.22 58.4961H256.236C258.359 58.4961 260.139 58.4235 261.578 58.2793C263 58.1368 264.117 57.8328 264.95 57.3896L264.953 57.3877C265.779 56.9558 266.406 56.3038 266.839 55.4131L266.842 55.4082C267.297 54.4993 267.622 53.2509 267.798 51.6416C267.974 50.0245 268.064 47.9768 268.064 45.4951V44.6162C268.064 42.046 267.974 39.9395 267.798 38.293C267.622 36.653 267.296 35.3997 266.843 34.5078L266.84 34.5029C266.409 33.6307 265.788 33.0107 264.971 32.6221L264.962 32.6182C264.129 32.2021 263.012 31.9257 261.588 31.8115L261.583 31.8105C260.141 31.6804 258.36 31.6152 256.236 31.6152H247.22ZM292.597 44.1387H310.748C313.291 44.1387 315.277 44.0577 316.712 43.8994C318.164 43.726 319.157 43.4365 319.748 43.0703L319.752 43.0674C320.343 42.7089 320.707 42.2164 320.868 41.5713L320.932 41.2891C321.071 40.6052 321.145 39.7382 321.145 38.6797V37.7998C321.145 36.4316 321.012 35.3924 320.768 34.6592C320.545 33.9896 320.106 33.4988 319.417 33.1729C318.697 32.8322 317.571 32.5954 315.996 32.4941L315.992 32.4932C314.414 32.3772 312.295 32.3193 309.63 32.3193H292.597V44.1387Z"/>
</mask>
<path d="M145.022 26.9648C148.074 26.9648 150.627 27.0604 152.677 27.2529C154.745 27.4473 156.435 27.8989 157.713 28.6367C159.022 29.3926 159.944 30.5652 160.485 32.1152H160.484C161.033 33.644 161.296 35.7025 161.296 38.2617V38.7617H156.001V38.2617C156.001 36.3168 155.807 34.9102 155.453 34.001L155.449 33.9922V33.9912C155.389 33.8294 155.323 33.6782 155.25 33.5371C155.011 33.1037 154.709 32.7527 154.344 32.4834C154.19 32.3777 154.025 32.2876 153.848 32.2139L153.845 32.2129C153.062 31.8814 151.962 31.6878 150.517 31.6592C149.045 31.6299 147.213 31.6152 145.022 31.6152H135.671C133.006 31.6152 130.877 31.6659 129.281 31.7676C128.568 31.8134 127.945 31.8876 127.408 31.9834C126.99 32.0838 126.628 32.2027 126.322 32.3418C125.531 32.7013 125 33.2774 124.727 34.0684C124.468 34.8593 124.338 35.9448 124.338 37.3252C124.338 38.4901 124.431 39.4252 124.618 40.1299C124.67 40.3251 124.741 40.5069 124.828 40.6768C124.983 40.844 125.169 40.9913 125.391 41.1182L125.633 41.2354C126.239 41.499 127.135 41.7045 128.354 41.8311H128.355C129.753 41.9612 131.67 42.042 134.11 42.0713H134.111L147.446 42.2471C150.59 42.2912 153.118 42.4748 155.02 42.8037H155.019C156.93 43.117 158.422 43.6406 159.44 44.4141L159.631 44.5625C160.56 45.3215 161.176 46.3228 161.48 47.5449H161.481C161.809 48.7884 161.968 50.3378 161.968 52.1797C161.968 54.1859 161.77 55.8985 161.366 57.3057L161.367 57.3066C160.965 58.7449 160.17 59.9095 158.99 60.7832C157.813 61.6547 156.154 62.2527 154.057 62.6113C151.959 62.9699 149.22 63.1465 145.851 63.1465H135.38C132.31 63.1465 129.721 63.0146 127.62 62.7471C125.502 62.4774 123.767 61.9335 122.446 61.0889L122.44 61.085C121.112 60.2092 120.17 58.9164 119.603 57.2441C119.041 55.5882 118.771 53.4159 118.771 50.751V50.251H124.066V50.751C124.066 52.7994 124.238 54.3396 124.56 55.3984C124.873 56.4296 125.4 57.1279 126.119 57.5508C126.893 57.9825 128.009 58.2652 129.506 58.3652H129.505C131.043 58.4522 133 58.4961 135.38 58.4961H145.627C148.287 58.4961 150.377 58.4162 151.902 58.2578L152.452 58.1865C153.682 58.0059 154.562 57.7236 155.132 57.3672C155.765 56.9566 156.169 56.3791 156.35 55.6064L156.351 55.5986C156.56 54.7603 156.672 53.6252 156.672 52.1797C156.672 50.8944 156.568 49.9202 156.377 49.2363C156.209 48.6345 155.84 48.1959 155.232 47.9033L155.225 47.8994C154.585 47.5788 153.533 47.3494 152.015 47.248L152.01 47.2471C150.488 47.1309 148.396 47.0507 145.73 47.0068V47.0059L133.292 46.8311C130.207 46.7869 127.709 46.6033 125.808 46.2744C123.909 45.946 122.414 45.4222 121.372 44.6699L121.368 44.667C120.322 43.8953 119.616 42.8609 119.259 41.584L119.257 41.5791L119.258 41.5781C118.93 40.3492 118.771 38.8364 118.771 37.0518C118.771 35.099 118.99 33.4554 119.447 32.1387L119.448 32.1338H119.449C119.936 30.7789 120.808 29.7131 122.052 28.9512L122.055 28.9502C123.301 28.1967 125.017 27.6932 127.167 27.4102C129.317 27.1126 132.08 26.9648 135.447 26.9648H145.022ZM256.236 26.9648C258.935 26.9649 261.255 27.0899 263.192 27.3428L263.191 27.3438C265.139 27.5834 266.783 28.0497 268.105 28.7607L268.355 28.8994C269.59 29.6118 270.575 30.6078 271.303 31.8779C272.074 33.2246 272.603 34.9471 272.907 37.0234L273.014 37.8164C273.245 39.719 273.359 41.9873 273.359 44.6162V45.4951C273.359 49.1316 273.112 52.1094 272.609 54.415L272.61 54.416C272.12 56.7374 271.235 58.5683 269.921 59.8594L269.92 59.8584C268.625 61.1456 266.843 62.0018 264.614 62.4551L264.613 62.4541C262.405 62.9179 259.609 63.1465 256.236 63.1465H247.22C243.846 63.1465 241.05 62.9181 238.841 62.4541C236.611 62.0005 234.821 61.1451 233.512 59.8584L233.51 59.8564C232.213 58.5664 231.329 56.7379 230.823 54.4189L230.822 54.416C230.55 53.1297 230.356 51.6339 230.237 49.9307C230.121 48.7222 230.049 47.4329 230.049 46.1025V44.6777C230.049 43.1287 230.105 41.7823 230.202 40.5645C230.277 39.259 230.392 38.0781 230.548 37.0234C230.852 34.9472 231.381 33.2246 232.152 31.8779H232.153C232.929 30.5247 233.987 29.4817 235.325 28.7617L235.328 28.7607C236.664 28.0503 238.315 27.5835 240.264 27.3438V27.3428C242.201 27.0899 244.521 26.9648 247.22 26.9648H256.236ZM180.724 42.4453H211.226V27.6689H216.521V62.4434H211.226V46.9639H180.724V62.4434H175.428V27.6689H180.724V42.4453ZM310.457 27.6689C313.823 27.6689 316.549 27.8164 318.626 28.1143L318.627 28.1133C320.719 28.4113 322.364 28.9323 323.514 29.7119C324.669 30.4959 325.454 31.5747 325.859 32.9287C326.251 34.2373 326.44 35.8662 326.44 37.7998V38.6797C326.44 40.4758 326.218 42.0485 325.765 43.3877L325.766 43.3887C325.309 44.7657 324.419 45.88 323.126 46.7275L323.123 46.7305C321.956 47.481 320.322 48.0089 318.257 48.3457L325.396 61.708L325.79 62.4434H320.36L320.219 62.1797L313.049 48.7773C312.84 48.7839 312.625 48.7881 312.404 48.7881H292.597V62.4365L292.253 62.4238V62.4434H286.957V27.6689H310.457ZM247.22 31.6152C245.096 31.6152 243.314 31.6804 241.872 31.8105L241.867 31.8115C240.444 31.9257 239.318 32.2016 238.468 32.6191L238.465 32.6201C237.663 33.0078 237.038 33.6274 236.592 34.502C236.151 35.3957 235.833 36.6515 235.657 38.293C235.481 39.9396 235.392 42.0462 235.392 44.6162V45.4951C235.392 47.9769 235.481 50.0253 235.657 51.6426C235.833 53.253 236.151 54.5025 236.594 55.4131C237.042 56.306 237.672 56.9576 238.481 57.3887C239.332 57.8329 240.456 58.1369 241.877 58.2793C243.317 58.4235 245.097 58.4961 247.22 58.4961H256.236C258.359 58.4961 260.139 58.4235 261.578 58.2793C263 58.1368 264.117 57.8328 264.95 57.3896L264.953 57.3877C265.779 56.9558 266.406 56.3038 266.839 55.4131L266.842 55.4082C267.297 54.4993 267.622 53.2509 267.798 51.6416C267.974 50.0245 268.064 47.9768 268.064 45.4951V44.6162C268.064 42.046 267.974 39.9395 267.798 38.293C267.622 36.653 267.296 35.3997 266.843 34.5078L266.84 34.5029C266.409 33.6307 265.788 33.0107 264.971 32.6221L264.962 32.6182C264.129 32.2021 263.012 31.9257 261.588 31.8115L261.583 31.8105C260.141 31.6804 258.36 31.6152 256.236 31.6152H247.22ZM292.597 44.1387H310.748C313.291 44.1387 315.277 44.0577 316.712 43.8994C318.164 43.726 319.157 43.4365 319.748 43.0703L319.752 43.0674C320.343 42.7089 320.707 42.2164 320.868 41.5713L320.932 41.2891C321.071 40.6052 321.145 39.7382 321.145 38.6797V37.7998C321.145 36.4316 321.012 35.3924 320.768 34.6592C320.545 33.9896 320.106 33.4988 319.417 33.1729C318.697 32.8322 317.571 32.5954 315.996 32.4941L315.992 32.4932C314.414 32.3772 312.295 32.3193 309.63 32.3193H292.597V44.1387Z" fill="#063251"/>
<path d="M152.677 27.2529L152.583 28.2485L152.583 28.2485L152.677 27.2529ZM157.713 28.6367L158.213 27.7707L158.213 27.7707L157.713 28.6367ZM160.485 32.1152V33.1152H161.894L161.429 31.7852L160.485 32.1152ZM160.484 32.1152V31.1152H159.063L159.543 32.4533L160.484 32.1152ZM161.296 38.2617H162.296V38.2617L161.296 38.2617ZM161.296 38.7617V39.7617H162.296V38.7617H161.296ZM156.001 38.7617H155.001V39.7617H156.001V38.7617ZM156.001 38.2617H157.001V38.2617L156.001 38.2617ZM155.453 34.001L156.385 33.6386L156.377 33.6165L156.367 33.5948L155.453 34.001ZM155.449 33.9922H154.449V34.2044L154.535 34.3983L155.449 33.9922ZM155.449 33.9912H156.449V33.8125L156.387 33.6449L155.449 33.9912ZM155.25 33.5371L156.138 33.0777L156.132 33.0661L156.126 33.0546L155.25 33.5371ZM154.344 32.4834L154.937 31.6782L154.923 31.6684L154.91 31.659L154.344 32.4834ZM153.848 32.2139L154.232 31.2907L154.198 31.2767L154.164 31.2652L153.848 32.2139ZM153.845 32.2129L153.455 33.1337L153.491 33.1491L153.528 33.1616L153.845 32.2129ZM150.517 31.6592L150.497 32.659L150.497 32.659L150.517 31.6592ZM129.281 31.7676L129.218 30.7696L129.217 30.7696L129.281 31.7676ZM127.408 31.9834L127.233 30.9989L127.203 31.0041L127.175 31.011L127.408 31.9834ZM126.322 32.3418L126.736 33.2522L126.736 33.2521L126.322 32.3418ZM124.727 34.0684L123.781 33.7418L123.779 33.7497L123.776 33.7575L124.727 34.0684ZM124.338 37.3252L123.338 37.3252V37.3252H124.338ZM124.618 40.1299L125.585 39.8738L125.585 39.8734L124.618 40.1299ZM124.828 40.6768L123.938 41.1329L124.001 41.2556L124.095 41.3567L124.828 40.6768ZM125.391 41.1182L124.893 41.9855L124.923 42.003L124.955 42.0183L125.391 41.1182ZM125.633 41.2354L125.197 42.1355L125.215 42.1443L125.234 42.1524L125.633 41.2354ZM128.354 41.8311L128.251 42.8257L128.303 42.8311H128.354V41.8311ZM128.355 41.8311L128.448 40.8354L128.402 40.8311H128.355V41.8311ZM134.11 42.0713L134.098 43.0713H134.11V42.0713ZM134.111 42.0713L134.125 41.0713H134.111V42.0713ZM147.446 42.2471L147.46 41.2472L147.459 41.2472L147.446 42.2471ZM155.02 42.8037V43.8037L155.19 41.8183L155.02 42.8037ZM155.019 42.8037V41.8037L154.857 43.7905L155.019 42.8037ZM159.44 44.4141L160.055 43.6253L160.045 43.6178L159.44 44.4141ZM159.631 44.5625L160.264 43.7882L160.255 43.7809L160.246 43.7738L159.631 44.5625ZM161.48 47.5449L160.51 47.7868L160.699 48.5449H161.48V47.5449ZM161.481 47.5449L162.448 47.2898L162.252 46.5449H161.481V47.5449ZM161.968 52.1797H162.968V52.1797L161.968 52.1797ZM161.366 57.3057L160.405 57.0298L160.242 57.5962L160.659 58.0128L161.366 57.3057ZM161.367 57.3066L162.33 57.5759L162.488 57.0129L162.074 56.5995L161.367 57.3066ZM158.99 60.7832L158.395 59.9795L158.395 59.9796L158.99 60.7832ZM154.057 62.6113L154.225 63.597L154.225 63.597L154.057 62.6113ZM145.851 63.1465V64.1465H145.851L145.851 63.1465ZM127.62 62.7471L127.746 61.7551L127.746 61.7551L127.62 62.7471ZM122.446 61.0889L121.892 61.9209L121.9 61.9262L121.908 61.9313L122.446 61.0889ZM122.44 61.085L122.995 60.2529L122.991 60.2501L122.44 61.085ZM119.603 57.2441L118.656 57.5653L118.656 57.5654L119.603 57.2441ZM118.771 50.751H117.771V50.751L118.771 50.751ZM118.771 50.251V49.251H117.771V50.251H118.771ZM124.066 50.251H125.066V49.251H124.066V50.251ZM124.066 50.751H123.066V50.751L124.066 50.751ZM124.56 55.3984L123.603 55.6892L123.603 55.6893L124.56 55.3984ZM126.119 57.5508L125.612 58.4126L125.622 58.4185L125.632 58.4241L126.119 57.5508ZM129.506 58.3652V59.3652L129.573 57.3675L129.506 58.3652ZM129.505 58.3652V57.3652L129.448 59.3636L129.505 58.3652ZM151.902 58.2578L152.006 59.2525L152.018 59.2512L152.031 59.2495L151.902 58.2578ZM152.452 58.1865L152.581 59.1782L152.589 59.1771L152.598 59.1759L152.452 58.1865ZM155.132 57.3672L155.662 58.2149L155.669 58.2106L155.676 58.2062L155.132 57.3672ZM156.35 55.6064L157.323 55.8338L157.335 55.7826L157.342 55.7305L156.35 55.6064ZM156.351 55.5986L155.38 55.356L155.366 55.4146L155.358 55.4746L156.351 55.5986ZM156.672 52.1797H157.672V52.1797L156.672 52.1797ZM156.377 49.2363L155.414 49.5054L155.414 49.5056L156.377 49.2363ZM155.232 47.9033L154.785 48.7977L154.792 48.8011L154.798 48.8043L155.232 47.9033ZM155.225 47.8994L154.777 48.7935L154.777 48.7938L155.225 47.8994ZM152.015 47.248L151.819 48.2286L151.883 48.2415L151.948 48.2458L152.015 47.248ZM152.01 47.2471L152.206 46.2665L152.146 46.2546L152.086 46.25L152.01 47.2471ZM145.73 47.0068H144.73V47.9905L145.714 48.0067L145.73 47.0068ZM145.73 47.0059H146.73V46.0198L145.745 46.006L145.73 47.0059ZM133.292 46.8311L133.278 47.831L133.278 47.831L133.292 46.8311ZM125.808 46.2744L125.978 45.289L125.978 45.289L125.808 46.2744ZM121.372 44.6699L120.772 45.4699L120.779 45.4754L120.787 45.4808L121.372 44.6699ZM121.368 44.667L121.968 43.867L121.962 43.8621L121.368 44.667ZM119.259 41.584L120.222 41.3146L120.207 41.2627L120.187 41.2126L119.259 41.584ZM119.257 41.5791L118.55 40.872L118.083 41.3383L118.328 41.9505L119.257 41.5791ZM119.258 41.5781L119.965 42.2852L120.373 41.8774L120.224 41.3201L119.258 41.5781ZM118.771 37.0518L117.771 37.0517V37.0518H118.771ZM119.447 32.1387L120.392 32.4666L120.414 32.4019L120.428 32.3348L119.447 32.1387ZM119.448 32.1338V31.1338H118.628L118.468 31.9377L119.448 32.1338ZM119.449 32.1338V33.1338H120.153L120.39 32.4719L119.449 32.1338ZM122.052 28.9512L121.736 28.0025L121.627 28.0387L121.529 28.0985L122.052 28.9512ZM122.055 28.9502L122.371 29.8989L122.477 29.8636L122.572 29.8059L122.055 28.9502ZM127.167 27.4102L127.298 28.4016L127.304 28.4007L127.167 27.4102ZM256.236 26.9648V25.9648V26.9648ZM263.192 27.3428L263.899 28.0499L265.335 26.614L263.322 26.3512L263.192 27.3428ZM263.191 27.3438L262.484 26.6366L261.035 28.086L263.069 28.3363L263.191 27.3438ZM268.105 28.7607L268.591 27.8862L268.579 27.88L268.105 28.7607ZM268.355 28.8994L268.855 28.0332L268.848 28.029L268.841 28.0249L268.355 28.8994ZM271.303 31.8779L272.17 31.3808L272.17 31.3806L271.303 31.8779ZM272.907 37.0234L273.898 36.8904L273.897 36.8786L272.907 37.0234ZM273.014 37.8164L274.006 37.6955L274.005 37.6834L273.014 37.8164ZM273.359 44.6162H274.359V44.6162L273.359 44.6162ZM272.609 54.415L271.632 54.2021L271.516 54.7359L271.902 55.1221L272.609 54.415ZM272.61 54.416L273.589 54.6228L273.701 54.0923L273.317 53.7089L272.61 54.416ZM269.921 59.8594L269.214 60.5665L269.915 61.2675L270.622 60.5726L269.921 59.8594ZM269.92 59.8584L270.627 59.1513L269.922 58.4463L269.215 59.1492L269.92 59.8584ZM264.614 62.4551L263.907 63.1622L264.287 63.5421L264.814 63.435L264.614 62.4551ZM264.613 62.4541L265.32 61.747L264.938 61.3642L264.408 61.4754L264.613 62.4541ZM256.236 63.1465V64.1465V63.1465ZM238.841 62.4541L239.046 61.4754L239.04 61.4742L238.841 62.4541ZM233.512 59.8584L232.805 60.5655L232.811 60.5715L233.512 59.8584ZM233.51 59.8564L234.217 59.1493L234.215 59.1475L233.51 59.8564ZM230.823 54.4189L231.8 54.2059L231.789 54.1536L231.772 54.1027L230.823 54.4189ZM230.822 54.416L229.844 54.6229L229.856 54.6784L229.874 54.7322L230.822 54.416ZM230.237 49.9307L231.235 49.8611L231.234 49.8479L231.233 49.8348L230.237 49.9307ZM230.202 40.5645L231.199 40.6438L231.2 40.6328L231.201 40.6219L230.202 40.5645ZM230.548 37.0234L231.537 37.1692L231.537 37.1684L230.548 37.0234ZM232.152 31.8779V30.8779H231.573L231.285 31.3808L232.152 31.8779ZM232.153 31.8779V32.8779H232.733L233.021 32.3753L232.153 31.8779ZM235.325 28.7617L235.009 27.813L234.927 27.8403L234.851 27.8812L235.325 28.7617ZM235.328 28.7607L235.644 29.7094L235.724 29.683L235.798 29.6436L235.328 28.7607ZM240.264 27.3438L240.386 28.3363L241.264 28.2283V27.3438H240.264ZM240.264 27.3428L240.134 26.3512L239.264 26.4648V27.3428H240.264ZM180.724 42.4453H179.724V43.4453H180.724V42.4453ZM211.226 42.4453V43.4453H212.226V42.4453H211.226ZM211.226 27.6689V26.6689H210.226V27.6689H211.226ZM216.521 27.6689H217.521V26.6689H216.521V27.6689ZM216.521 62.4434V63.4434H217.521V62.4434H216.521ZM211.226 62.4434H210.226V63.4434H211.226V62.4434ZM211.226 46.9639H212.226V45.9639H211.226V46.9639ZM180.724 46.9639V45.9639H179.724V46.9639H180.724ZM180.724 62.4434V63.4434H181.724V62.4434H180.724ZM175.428 62.4434H174.428V63.4434H175.428V62.4434ZM175.428 27.6689V26.6689H174.428V27.6689H175.428ZM180.724 27.6689H181.724V26.6689H180.724V27.6689ZM318.626 28.1143L318.484 29.1041L318.979 29.1752L319.333 28.8214L318.626 28.1143ZM318.627 28.1133L318.768 27.1233L318.273 27.0528L317.92 27.4062L318.627 28.1133ZM323.514 29.7119L324.075 28.8843L324.075 28.8843L323.514 29.7119ZM325.859 32.9287L326.817 32.6421L326.817 32.6419L325.859 32.9287ZM326.44 37.7998H327.44V37.7998L326.44 37.7998ZM326.44 38.6797L327.44 38.6797V38.6797H326.44ZM325.765 43.3877L324.818 43.0669L324.618 43.6554L325.058 44.0948L325.765 43.3877ZM325.766 43.3887L326.715 43.7034L326.909 43.1178L326.473 42.6816L325.766 43.3887ZM323.126 46.7275L322.578 45.8911L322.492 45.9476L322.419 46.0204L323.126 46.7275ZM323.123 46.7305L323.664 47.5716L323.754 47.5135L323.83 47.4376L323.123 46.7305ZM318.257 48.3457L318.096 47.3587L316.716 47.5838L317.375 48.817L318.257 48.3457ZM325.396 61.708L324.514 62.1793L324.515 62.1799L325.396 61.708ZM325.79 62.4434V63.4434H327.459L326.672 61.9715L325.79 62.4434ZM320.36 62.4434L319.479 62.9165L319.762 63.4434H320.36V62.4434ZM320.219 62.1797L319.337 62.6514L319.338 62.6528L320.219 62.1797ZM313.049 48.7773L313.931 48.3056L313.638 47.7584L313.018 47.7778L313.049 48.7773ZM312.404 48.7881V49.7881H312.404L312.404 48.7881ZM292.597 48.7881V47.7881H291.597V48.7881H292.597ZM292.597 62.4365L292.56 63.4358L293.597 63.4741V62.4365H292.597ZM292.253 62.4238L292.29 61.4245L291.253 61.3862V62.4238H292.253ZM292.253 62.4434V63.4434H293.253V62.4434H292.253ZM286.957 62.4434H285.957V63.4434H286.957V62.4434ZM286.957 27.6689V26.6689H285.957V27.6689H286.957ZM241.872 31.8105L241.782 30.8146L241.729 30.8194L241.676 30.83L241.872 31.8105ZM241.867 31.8115L241.947 32.8083L242.006 32.8036L242.063 32.7921L241.867 31.8115ZM238.468 32.6191L238.784 33.5678L238.848 33.5465L238.909 33.5167L238.468 32.6191ZM238.465 32.6201L238.149 31.6714L238.088 31.6918L238.03 31.7198L238.465 32.6201ZM236.592 34.502L235.701 34.0474L235.695 34.0594L236.592 34.502ZM235.657 38.293L234.663 38.1865V38.1865L235.657 38.293ZM235.392 44.6162L234.392 44.6162V44.6162H235.392ZM235.657 51.6426L234.663 51.7509L234.663 51.7509L235.657 51.6426ZM236.594 55.4131L235.694 55.8503L235.7 55.862L236.594 55.4131ZM238.481 57.3887L238.012 58.2714L238.018 58.275L238.481 57.3887ZM241.877 58.2793L241.777 59.2743L241.877 58.2793ZM256.236 58.4961V59.4961V58.4961ZM261.578 58.2793L261.678 59.2743L261.578 58.2793ZM264.95 57.3896L265.42 58.2725L265.464 58.2492L265.505 58.2217L264.95 57.3896ZM264.953 57.3877L264.49 56.5016L264.443 56.5262L264.398 56.5556L264.953 57.3877ZM266.839 55.4131L265.981 54.8986L265.959 54.9363L265.939 54.9759L266.839 55.4131ZM266.842 55.4082L267.699 55.9227L267.719 55.8902L267.736 55.8563L266.842 55.4082ZM267.798 51.6416L266.804 51.5331L266.804 51.5333L267.798 51.6416ZM268.064 44.6162H269.064V44.6162L268.064 44.6162ZM267.798 38.293L266.804 38.3994L266.804 38.3996L267.798 38.293ZM266.843 34.5078L267.734 34.0544L267.718 34.0233L267.7 33.9933L266.843 34.5078ZM266.84 34.5029L265.943 34.9455L265.961 34.9823L265.982 35.0174L266.84 34.5029ZM264.971 32.6221L265.4 31.7189L265.389 31.7134L265.377 31.7083L264.971 32.6221ZM264.962 32.6182L264.515 33.5127L264.535 33.5228L264.556 33.532L264.962 32.6182ZM261.588 31.8115L261.392 32.7921L261.449 32.8036L261.508 32.8083L261.588 31.8115ZM261.583 31.8105L261.779 30.83L261.726 30.8194L261.673 30.8146L261.583 31.8105ZM256.236 31.6152V30.6152V31.6152ZM292.597 44.1387H291.597V45.1387H292.597V44.1387ZM316.712 43.8994L316.822 44.8934L316.83 44.8924L316.712 43.8994ZM319.748 43.0703L320.275 43.9204L320.312 43.897L320.348 43.8703L319.748 43.0703ZM319.752 43.0674L319.233 42.2124L319.191 42.2379L319.152 42.2674L319.752 43.0674ZM320.868 41.5713L321.838 41.8134L321.841 41.8021L321.844 41.7907L320.868 41.5713ZM320.932 41.2891L321.907 41.5085L321.91 41.4985L321.912 41.4884L320.932 41.2891ZM321.145 38.6797L322.145 38.6797V38.6797H321.145ZM321.145 37.7998H322.145V37.7998L321.145 37.7998ZM320.768 34.6592L321.716 34.3435L321.716 34.3433L320.768 34.6592ZM319.417 33.1729L319.845 32.269L319.845 32.269L319.417 33.1729ZM315.996 32.4941L315.754 33.4643L315.841 33.4863L315.932 33.4921L315.996 32.4941ZM315.992 32.4932L316.235 31.523L316.151 31.5022L316.065 31.4959L315.992 32.4932ZM309.63 32.3193V31.3193V32.3193ZM292.597 32.3193V31.3193H291.597V32.3193H292.597ZM145.022 26.9648V27.9648C148.056 27.9648 150.576 28.06 152.583 28.2485L152.677 27.2529L152.77 26.2573C150.679 26.0608 148.092 25.9648 145.022 25.9648V26.9648ZM152.677 27.2529L152.583 28.2485C154.572 28.4353 156.104 28.8629 157.213 29.5028L157.713 28.6367L158.213 27.7707C156.765 26.9349 154.919 26.4592 152.77 26.2573L152.677 27.2529ZM157.713 28.6367L157.213 29.5027C158.29 30.1246 159.069 31.093 159.541 32.4452L160.485 32.1152L161.429 31.7852C160.818 30.0375 159.754 28.6605 158.213 27.7707L157.713 28.6367ZM160.485 32.1152V31.1152H160.484V32.1152V33.1152H160.485V32.1152ZM160.484 32.1152L159.543 32.4533C160.036 33.8263 160.296 35.7536 160.296 38.2617L161.296 38.2617L162.296 38.2617C162.296 35.6514 162.031 33.4617 161.426 31.7772L160.484 32.1152ZM161.296 38.2617H160.296V38.7617H161.296H162.296V38.2617H161.296ZM161.296 38.7617V37.7617H156.001V38.7617V39.7617H161.296V38.7617ZM156.001 38.7617H157.001V38.2617H156.001H155.001V38.7617H156.001ZM156.001 38.2617L157.001 38.2617C157.001 36.2787 156.807 34.7228 156.385 33.6386L155.453 34.001L154.521 34.3634C154.807 35.0976 155.001 36.3549 155.001 38.2617L156.001 38.2617ZM155.453 34.001L156.367 33.5948L156.363 33.586L155.449 33.9922L154.535 34.3983L154.539 34.4071L155.453 34.001ZM155.449 33.9922H156.449V33.9912H155.449H154.449V33.9922H155.449ZM155.449 33.9912L156.387 33.6449C156.314 33.4467 156.231 33.2575 156.138 33.0777L155.25 33.5371L154.362 33.9965C154.415 34.0988 154.465 34.2121 154.511 34.3375L155.449 33.9912ZM155.25 33.5371L156.126 33.0546C155.824 32.5059 155.429 32.0408 154.937 31.6782L154.344 32.4834L153.751 33.2886C153.99 33.4646 154.199 33.7014 154.374 34.0196L155.25 33.5371ZM154.344 32.4834L154.91 31.659C154.699 31.5143 154.473 31.391 154.232 31.2907L153.848 32.2139L153.463 33.137C153.576 33.1842 153.681 33.2412 153.778 33.3078L154.344 32.4834ZM153.848 32.2139L154.164 31.2652L154.161 31.2642L153.845 32.2129L153.528 33.1616L153.531 33.1626L153.848 32.2139ZM153.845 32.2129L154.235 31.2921C153.287 30.8906 152.044 30.6893 150.536 30.6594L150.517 31.6592L150.497 32.659C151.88 32.6864 152.837 32.8721 153.455 33.1337L153.845 32.2129ZM150.517 31.6592L150.536 30.6594C149.056 30.63 147.217 30.6152 145.022 30.6152V31.6152V32.6152C147.209 32.6152 149.034 32.6299 150.497 32.659L150.517 31.6592ZM145.022 31.6152V30.6152H135.671V31.6152V32.6152H145.022V31.6152ZM135.671 31.6152V30.6152C132.997 30.6152 130.844 30.666 129.218 30.7696L129.281 31.7676L129.345 32.7656C130.91 32.6658 133.015 32.6152 135.671 32.6152V31.6152ZM129.281 31.7676L129.217 30.7696C128.473 30.8174 127.813 30.8955 127.233 30.9989L127.408 31.9834L127.584 32.9679C128.078 32.8797 128.663 32.8094 129.345 32.7655L129.281 31.7676ZM127.408 31.9834L127.175 31.011C126.713 31.122 126.287 31.2594 125.908 31.4315L126.322 32.3418L126.736 33.2521C126.97 33.146 127.268 33.0455 127.642 32.9558L127.408 31.9834ZM126.322 32.3418L125.908 31.4314C124.878 31.9 124.148 32.6815 123.781 33.7418L124.727 34.0684L125.672 34.3949C125.852 33.8732 126.185 33.5027 126.736 33.2522L126.322 32.3418ZM124.727 34.0684L123.776 33.7575C123.47 34.6929 123.338 35.8986 123.338 37.3252L124.338 37.3252L125.338 37.3252C125.338 35.991 125.466 35.0257 125.677 34.3792L124.727 34.0684ZM124.338 37.3252H123.338C123.338 38.5315 123.433 39.5633 123.652 40.3863L124.618 40.1299L125.585 39.8734C125.429 39.287 125.338 38.4487 125.338 37.3252H124.338ZM124.618 40.1299L123.652 40.386C123.722 40.6529 123.82 40.9016 123.938 41.1329L124.828 40.6768L125.718 40.2206C125.662 40.1122 125.618 39.9973 125.585 39.8738L124.618 40.1299ZM124.828 40.6768L124.095 41.3567C124.324 41.6034 124.591 41.8123 124.893 41.9855L125.391 41.1182L125.888 40.2508C125.748 40.1702 125.643 40.0845 125.561 39.9968L124.828 40.6768ZM125.391 41.1182L124.955 42.0183L125.197 42.1355L125.633 41.2354L126.068 40.3352L125.826 40.218L125.391 41.1182ZM125.633 41.2354L125.234 42.1524C125.976 42.4752 126.989 42.6947 128.251 42.8257L128.354 41.8311L128.458 40.8364C127.282 40.7144 126.502 40.5228 126.032 40.3183L125.633 41.2354ZM128.354 41.8311V42.8311H128.355V41.8311V40.8311H128.354V41.8311ZM128.355 41.8311L128.263 42.8267C129.699 42.9605 131.647 43.0418 134.098 43.0712L134.11 42.0713L134.122 41.0714C131.693 41.0422 129.807 40.9618 128.448 40.8354L128.355 41.8311ZM134.11 42.0713V43.0713H134.111V42.0713V41.0713H134.11V42.0713ZM134.111 42.0713L134.098 43.0712L147.433 43.247L147.446 42.2471L147.459 41.2472L134.125 41.0714L134.111 42.0713ZM147.446 42.2471L147.432 43.247C150.553 43.2908 153.022 43.473 154.849 43.7891L155.02 42.8037L155.19 41.8183C153.214 41.4766 150.627 41.2916 147.46 41.2472L147.446 42.2471ZM155.02 42.8037V41.8037H155.019V42.8037V43.8037H155.02V42.8037ZM155.019 42.8037L154.857 43.7905C156.698 44.0923 158.005 44.5793 158.835 45.2103L159.44 44.4141L160.045 43.6178C158.84 42.7019 157.161 42.1417 155.18 41.8169L155.019 42.8037ZM159.44 44.4141L158.826 45.2028L159.016 45.3512L159.631 44.5625L160.246 43.7738L160.055 43.6254L159.44 44.4141ZM159.631 44.5625L158.998 45.3368C159.748 45.95 160.254 46.7591 160.51 47.7868L161.48 47.5449L162.451 47.303C162.098 45.8866 161.371 44.693 160.264 43.7882L159.631 44.5625ZM161.48 47.5449V48.5449H161.481V47.5449V46.5449H161.48V47.5449ZM161.481 47.5449L160.515 47.8C160.813 48.9308 160.968 50.3868 160.968 52.1797L161.968 52.1797L162.968 52.1797C162.968 50.2887 162.806 48.6461 162.448 47.2898L161.481 47.5449ZM161.968 52.1797H160.968C160.968 54.1267 160.775 55.7401 160.405 57.0298L161.366 57.3057L162.327 57.5815C162.765 56.0569 162.968 54.2451 162.968 52.1797H161.968ZM161.366 57.3057L160.659 58.0128L160.66 58.0137L161.367 57.3066L162.074 56.5995L162.073 56.5986L161.366 57.3057ZM161.367 57.3066L160.404 57.0374C160.061 58.2664 159.393 59.2411 158.395 59.9795L158.99 60.7832L159.585 61.5869C160.948 60.578 161.87 59.2234 162.33 57.5759L161.367 57.3066ZM158.99 60.7832L158.395 59.9796C157.394 60.7208 155.907 61.2805 153.888 61.6256L154.057 62.6113L154.225 63.597C156.401 63.225 158.233 62.5886 159.585 61.5868L158.99 60.7832ZM154.057 62.6113L153.888 61.6256C151.869 61.9708 149.193 62.1465 145.851 62.1465L145.851 63.1465L145.851 64.1465C149.247 64.1465 152.049 63.9691 154.225 63.597L154.057 62.6113ZM145.851 63.1465V62.1465H135.38V63.1465V64.1465H145.851V63.1465ZM135.38 63.1465V62.1465C132.334 62.1465 129.791 62.0155 127.746 61.7551L127.62 62.7471L127.494 63.7391C129.651 64.0138 132.285 64.1465 135.38 64.1465V63.1465ZM127.62 62.7471L127.746 61.7551C125.717 61.4968 124.14 60.9849 122.985 60.2464L122.446 61.0889L121.908 61.9313C123.394 62.8821 125.287 63.4581 127.494 63.7391L127.62 62.7471ZM122.446 61.0889L123.001 60.2568L122.995 60.2529L122.44 61.085L121.886 61.917L121.892 61.9209L122.446 61.0889ZM122.44 61.085L122.991 60.2501C121.874 59.5138 121.056 58.4161 120.55 56.9228L119.603 57.2441L118.656 57.5654C119.284 59.4168 120.35 60.9046 121.89 61.9198L122.44 61.085ZM119.603 57.2441L120.55 56.9229C120.037 55.4125 119.771 53.3622 119.771 50.751L118.771 50.751L117.771 50.751C117.771 53.4696 118.045 55.764 118.656 57.5653L119.603 57.2441ZM118.771 50.751H119.771V50.251H118.771H117.771V50.751H118.771ZM118.771 50.251V51.251H124.066V50.251V49.251H118.771V50.251ZM124.066 50.251H123.066V50.751H124.066H125.066V50.251H124.066ZM124.066 50.751L123.066 50.751C123.066 52.8359 123.239 54.491 123.603 55.6892L124.56 55.3984L125.516 55.1077C125.237 54.1882 125.066 52.763 125.066 50.751L124.066 50.751ZM124.56 55.3984L123.603 55.6893C123.974 56.9104 124.636 57.8382 125.612 58.4126L126.119 57.5508L126.626 56.6889C126.165 56.4175 125.772 55.9489 125.516 55.1076L124.56 55.3984ZM126.119 57.5508L125.632 58.4241C126.587 58.9569 127.869 59.258 129.439 59.363L129.506 58.3652L129.573 57.3675C128.15 57.2723 127.199 57.0082 126.606 56.6775L126.119 57.5508ZM129.506 58.3652V57.3652H129.505V58.3652V59.3652H129.506V58.3652ZM129.505 58.3652L129.448 59.3636C131.012 59.4521 132.99 59.4961 135.38 59.4961V58.4961V57.4961C133.01 57.4961 131.073 57.4524 129.561 57.3668L129.505 58.3652ZM135.38 58.4961V59.4961H145.627V58.4961V57.4961H135.38V58.4961ZM145.627 58.4961V59.4961C148.301 59.4961 150.43 59.416 152.006 59.2525L151.902 58.2578L151.799 57.2632C150.323 57.4163 148.273 57.4961 145.627 57.4961V58.4961ZM151.902 58.2578L152.031 59.2495L152.581 59.1782L152.452 58.1865L152.324 57.1948L151.774 57.2661L151.902 58.2578ZM152.452 58.1865L152.598 59.1759C153.885 58.9868 154.923 58.6777 155.662 58.2149L155.132 57.3672L154.601 56.5194C154.202 56.7694 153.479 57.0249 152.307 57.1971L152.452 58.1865ZM155.132 57.3672L155.676 58.2062C156.533 57.6503 157.086 56.8498 157.323 55.8338L156.35 55.6064L155.376 55.3791C155.252 55.9084 154.997 56.2629 154.588 56.5281L155.132 57.3672ZM156.35 55.6064L157.342 55.7305L157.343 55.7227L156.351 55.5986L155.358 55.4746L155.357 55.4824L156.35 55.6064ZM156.351 55.5986L157.321 55.8413C157.558 54.8915 157.672 53.6655 157.672 52.1797H156.672H155.672C155.672 53.5849 155.562 54.6291 155.38 55.356L156.351 55.5986ZM156.672 52.1797L157.672 52.1797C157.672 50.8564 157.567 49.7781 157.34 48.967L156.377 49.2363L155.414 49.5056C155.57 50.0623 155.672 50.9324 155.672 52.1797L156.672 52.1797ZM156.377 49.2363L157.34 48.9673C157.091 48.0749 156.52 47.4134 155.666 47.0024L155.232 47.9033L154.798 48.8043C155.16 48.9784 155.327 49.1942 155.414 49.5054L156.377 49.2363ZM155.232 47.9033L155.68 47.0089L155.672 47.005L155.225 47.8994L154.777 48.7938L154.785 48.7977L155.232 47.9033ZM155.225 47.8994L155.673 47.0054C154.85 46.5933 153.635 46.3541 152.081 46.2503L152.015 47.248L151.948 48.2458C153.43 48.3448 154.319 48.5643 154.777 48.7935L155.225 47.8994ZM152.015 47.248L152.211 46.2675L152.206 46.2665L152.01 47.2471L151.814 48.2277L151.819 48.2286L152.015 47.248ZM152.01 47.2471L152.086 46.25C150.535 46.1316 148.42 46.051 145.747 46.007L145.73 47.0068L145.714 48.0067C148.372 48.0505 150.441 48.1302 151.934 48.2442L152.01 47.2471ZM145.73 47.0068H146.73V47.0059H145.73H144.73V47.0068H145.73ZM145.73 47.0059L145.745 46.006L133.306 45.8312L133.292 46.8311L133.278 47.831L145.716 48.0058L145.73 47.0059ZM133.292 46.8311L133.306 45.8312C130.246 45.7874 127.806 45.6052 125.978 45.289L125.808 46.2744L125.637 47.2598C127.612 47.6013 130.169 47.7865 133.278 47.831L133.292 46.8311ZM125.808 46.2744L125.978 45.289C124.149 44.9726 122.824 44.4845 121.957 43.859L121.372 44.6699L120.787 45.4808C122.005 46.36 123.67 46.9194 125.637 47.2598L125.808 46.2744ZM121.372 44.6699L121.972 43.8699L121.968 43.867L121.368 44.667L120.768 45.467L120.772 45.4699L121.372 44.6699ZM121.368 44.667L121.962 43.8621C121.099 43.2264 120.521 42.3829 120.222 41.3146L119.259 41.584L118.296 41.8533C118.711 43.339 119.544 44.5642 120.775 45.4719L121.368 44.667ZM119.259 41.584L120.187 41.2126L120.185 41.2077L119.257 41.5791L118.328 41.9505L118.33 41.9554L119.259 41.584ZM119.257 41.5791L119.964 42.2862L119.965 42.2852L119.258 41.5781L118.551 40.871L118.55 40.872L119.257 41.5791ZM119.258 41.5781L120.224 41.3201C119.926 40.2036 119.771 38.7843 119.771 37.0518H118.771H117.771C117.771 38.8886 117.934 40.4949 118.292 41.8361L119.258 41.5781ZM118.771 37.0518L119.771 37.0518C119.771 35.1646 119.984 33.6417 120.392 32.4666L119.447 32.1387L118.503 31.8108C117.996 33.2691 117.771 35.0334 117.771 37.0517L118.771 37.0518ZM119.447 32.1387L120.428 32.3348L120.429 32.3299L119.448 32.1338L118.468 31.9377L118.467 31.9426L119.447 32.1387ZM119.448 32.1338V33.1338H119.449V32.1338V31.1338H119.448V32.1338ZM119.449 32.1338L120.39 32.4719C120.799 31.3345 121.522 30.4488 122.574 29.8039L122.052 28.9512L121.529 28.0985C120.095 28.9774 119.073 30.2232 118.508 31.7957L119.449 32.1338ZM122.052 28.9512L122.368 29.8999L122.371 29.8989L122.055 28.9502L121.738 28.0015L121.736 28.0025L122.052 28.9512ZM122.055 28.9502L122.572 29.8059C123.652 29.1531 125.215 28.6758 127.298 28.4016L127.167 27.4102L127.036 26.4187C124.819 26.7106 122.95 27.2403 121.537 28.0945L122.055 28.9502ZM127.167 27.4102L127.304 28.4007C129.391 28.1119 132.103 27.9648 135.447 27.9648V26.9648V25.9648C132.056 25.9648 129.243 26.1133 127.03 26.4196L127.167 27.4102ZM135.447 26.9648V27.9648H145.022V26.9648V25.9648H135.447V26.9648ZM256.236 26.9648V27.9648C258.907 27.9649 261.182 28.0888 263.063 28.3344L263.192 27.3428L263.322 26.3512C261.329 26.0911 258.963 25.9649 256.236 25.9648V26.9648ZM263.192 27.3428L262.485 26.6357L262.484 26.6366L263.191 27.3438L263.899 28.0509L263.899 28.0499L263.192 27.3428ZM263.191 27.3438L263.069 28.3363C264.935 28.5658 266.45 29.0059 267.632 29.6414L268.105 28.7607L268.579 27.88C267.117 27.0934 265.344 26.6009 263.313 26.3512L263.191 27.3438ZM268.105 28.7607L267.62 29.6352L267.87 29.7739L268.355 28.8994L268.841 28.0249L268.591 27.8863L268.105 28.7607ZM268.355 28.8994L267.856 29.7656C268.933 30.387 269.792 31.2535 270.435 32.3753L271.303 31.8779L272.17 31.3806C271.357 29.962 270.248 28.8367 268.855 28.0332L268.355 28.8994ZM271.303 31.8779L270.435 32.375C271.125 33.5788 271.625 35.1699 271.918 37.1682L272.907 37.0234L273.897 36.8786C273.581 34.7242 273.024 32.8703 272.17 31.3808L271.303 31.8779ZM272.907 37.0234L271.916 37.1565L272.023 37.9494L273.014 37.8164L274.005 37.6834L273.898 36.8904L272.907 37.0234ZM273.014 37.8164L272.021 37.9373C272.246 39.7877 272.359 42.0134 272.359 44.6162L273.359 44.6162L274.359 44.6162C274.359 41.9613 274.244 39.6503 274.006 37.6956L273.014 37.8164ZM273.359 44.6162H272.359V45.4951H273.359H274.359V44.6162H273.359ZM273.359 45.4951H272.359C272.359 49.0952 272.114 51.994 271.632 54.2021L272.609 54.415L273.586 54.628C274.11 52.2249 274.359 49.168 274.359 45.4951H273.359ZM272.609 54.415L271.902 55.1221L271.903 55.1231L272.61 54.416L273.317 53.7089L273.316 53.7079L272.609 54.415ZM272.61 54.416L271.632 54.2093C271.168 56.4031 270.352 58.0331 269.22 59.1462L269.921 59.8594L270.622 60.5726C272.117 59.1036 273.071 57.0716 273.589 54.6228L272.61 54.416ZM269.921 59.8594L270.628 59.1523L270.627 59.1513L269.92 59.8584L269.213 60.5655L269.214 60.5665L269.921 59.8594ZM269.92 59.8584L269.215 59.1492C268.094 60.2636 266.508 61.0495 264.415 61.4751L264.614 62.4551L264.814 63.435C267.178 62.9541 269.156 62.0276 270.625 60.5676L269.92 59.8584ZM264.614 62.4551L265.321 61.748L265.32 61.747L264.613 62.4541L263.906 63.1612L263.907 63.1622L264.614 62.4551ZM264.613 62.4541L264.408 61.4754C262.292 61.9198 259.571 62.1465 256.236 62.1465V63.1465V64.1465C259.647 64.1465 262.517 63.916 264.819 63.4328L264.613 62.4541ZM256.236 63.1465V62.1465H247.22V63.1465V64.1465H256.236V63.1465ZM247.22 63.1465V62.1465C243.884 62.1465 241.163 61.9199 239.046 61.4755L238.841 62.4541L238.635 63.4328C240.937 63.9162 243.809 64.1465 247.22 64.1465V63.1465ZM238.841 62.4541L239.04 61.4742C236.945 61.0481 235.349 60.2623 234.213 59.1452L233.512 59.8584L232.811 60.5715C234.292 62.0279 236.276 62.9529 238.642 63.434L238.841 62.4541ZM233.512 59.8584L234.219 59.1513L234.217 59.1493L233.51 59.8564L232.803 60.5636L232.805 60.5655L233.512 59.8584ZM233.51 59.8564L234.215 59.1475C233.095 58.0335 232.279 56.4019 231.8 54.2059L230.823 54.4189L229.846 54.6319C230.379 57.0739 231.331 59.0992 232.804 60.5654L233.51 59.8564ZM230.823 54.4189L231.772 54.1027L231.771 54.0998L230.822 54.416L229.874 54.7322L229.875 54.7352L230.823 54.4189ZM230.822 54.416L231.801 54.2091C231.541 52.9797 231.351 51.5317 231.235 49.8611L230.237 49.9307L229.24 50.0002C229.361 51.7361 229.56 53.2798 229.844 54.6229L230.822 54.416ZM230.237 49.9307L231.233 49.8348C231.119 48.6543 231.049 47.3972 231.049 46.1025H230.049H229.049C229.049 47.4687 229.123 48.7901 229.242 50.0265L230.237 49.9307ZM230.049 46.1025H231.049V44.6777H230.049H229.049V46.1025H230.049ZM230.049 44.6777H231.049C231.049 43.1534 231.104 41.8336 231.199 40.6438L230.202 40.5645L229.205 40.4851C229.106 41.7311 229.049 43.104 229.049 44.6777H230.049ZM230.202 40.5645L231.201 40.6219C231.274 39.3395 231.387 38.1888 231.537 37.1692L230.548 37.0234L229.559 36.8776C229.398 37.9674 229.28 39.1784 229.204 40.507L230.202 40.5645ZM230.548 37.0234L231.537 37.1684C231.83 35.17 232.33 33.5788 233.02 32.375L232.152 31.8779L231.285 31.3808C230.431 32.8704 229.874 34.7244 229.558 36.8785L230.548 37.0234ZM232.152 31.8779V32.8779H232.153V31.8779V30.8779H232.152V31.8779ZM232.153 31.8779L233.021 32.3753C233.707 31.1781 234.632 30.2706 235.799 29.6423L235.325 28.7617L234.851 27.8812C233.343 28.6929 232.151 29.8714 231.286 31.3806L232.153 31.8779ZM235.325 28.7617L235.641 29.7104L235.644 29.7094L235.328 28.7607L235.012 27.8121L235.009 27.813L235.325 28.7617ZM235.328 28.7607L235.798 29.6436C236.995 29.0066 238.519 28.5658 240.386 28.3363L240.264 27.3438L240.142 26.3512C238.11 26.6011 236.333 27.0939 234.859 27.8778L235.328 28.7607ZM240.264 27.3438H241.264V27.3428H240.264H239.264V27.3438H240.264ZM240.264 27.3428L240.393 28.3344C242.274 28.0888 244.549 27.9648 247.22 27.9648V26.9648V25.9648C244.493 25.9648 242.127 26.091 240.134 26.3512L240.264 27.3428ZM247.22 26.9648V27.9648H256.236V26.9648V25.9648H247.22V26.9648ZM180.724 42.4453V43.4453H211.226V42.4453V41.4453H180.724V42.4453ZM211.226 42.4453H212.226V27.6689H211.226H210.226V42.4453H211.226ZM211.226 27.6689V28.6689H216.521V27.6689V26.6689H211.226V27.6689ZM216.521 27.6689H215.521V62.4434H216.521H217.521V27.6689H216.521ZM216.521 62.4434V61.4434H211.226V62.4434V63.4434H216.521V62.4434ZM211.226 62.4434H212.226V46.9639H211.226H210.226V62.4434H211.226ZM211.226 46.9639V45.9639H180.724V46.9639V47.9639H211.226V46.9639ZM180.724 46.9639H179.724V62.4434H180.724H181.724V46.9639H180.724ZM180.724 62.4434V61.4434H175.428V62.4434V63.4434H180.724V62.4434ZM175.428 62.4434H176.428V27.6689H175.428H174.428V62.4434H175.428ZM175.428 27.6689V28.6689H180.724V27.6689V26.6689H175.428V27.6689ZM180.724 27.6689H179.724V42.4453H180.724H181.724V27.6689H180.724ZM310.457 27.6689V28.6689C313.801 28.6689 316.474 28.8159 318.484 29.1041L318.626 28.1143L318.768 27.1244C316.625 26.817 313.846 26.6689 310.457 26.6689V27.6689ZM318.626 28.1143L319.333 28.8214L319.334 28.8204L318.627 28.1133L317.92 27.4062L317.919 27.4072L318.626 28.1143ZM318.627 28.1133L318.486 29.1033C320.511 29.3917 321.984 29.8825 322.952 30.5395L323.514 29.7119L324.075 28.8843C322.745 27.9821 320.927 27.4308 318.768 27.1233L318.627 28.1133ZM323.514 29.7119L322.952 30.5395C323.914 31.1918 324.561 32.0778 324.901 33.2155L325.859 32.9287L326.817 32.6419C326.347 31.0715 325.425 29.8 324.075 28.8843L323.514 29.7119ZM325.859 32.9287L324.901 33.2154C325.255 34.3989 325.44 35.923 325.44 37.7998L326.44 37.7998L327.44 37.7998C327.44 35.8095 327.246 34.0757 326.817 32.6421L325.859 32.9287ZM326.44 37.7998H325.44V38.6797H326.44H327.44V37.7998H326.44ZM326.44 38.6797L325.44 38.6797C325.44 40.3973 325.227 41.8565 324.818 43.0669L325.765 43.3877L326.712 43.7085C327.209 42.2404 327.44 40.5542 327.44 38.6797L326.44 38.6797ZM325.765 43.3877L325.058 44.0948L325.059 44.0958L325.766 43.3887L326.473 42.6816L326.472 42.6806L325.765 43.3877ZM325.766 43.3887L324.816 43.074C324.437 44.2175 323.7 45.1556 322.578 45.8911L323.126 46.7275L323.674 47.564C325.139 46.6044 326.181 45.3139 326.715 43.7034L325.766 43.3887ZM323.126 46.7275L322.419 46.0204L322.416 46.0234L323.123 46.7305L323.83 47.4376L323.833 47.4346L323.126 46.7275ZM323.123 46.7305L322.582 45.8894C321.579 46.5344 320.098 47.0322 318.096 47.3587L318.257 48.3457L318.418 49.3327C320.546 48.9855 322.333 48.4275 323.664 47.5716L323.123 46.7305ZM318.257 48.3457L317.375 48.817L324.514 62.1793L325.396 61.708L326.278 61.2367L319.139 47.8744L318.257 48.3457ZM325.396 61.708L324.515 62.1799L324.908 62.9152L325.79 62.4434L326.672 61.9715L326.278 61.2361L325.396 61.708ZM325.79 62.4434V61.4434H320.36V62.4434V63.4434H325.79V62.4434ZM320.36 62.4434L321.241 61.9702L321.1 61.7066L320.219 62.1797L319.338 62.6528L319.479 62.9165L320.36 62.4434ZM320.219 62.1797L321.1 61.708L313.931 48.3056L313.049 48.7773L312.167 49.2491L319.337 62.6514L320.219 62.1797ZM313.049 48.7773L313.018 47.7778C312.817 47.7841 312.613 47.7881 312.404 47.7881L312.404 48.7881L312.404 49.7881C312.638 49.7881 312.863 49.7836 313.08 49.7769L313.049 48.7773ZM312.404 48.7881V47.7881H292.597V48.7881V49.7881H312.404V48.7881ZM292.597 48.7881H291.597V62.4365H292.597H293.597V48.7881H292.597ZM292.597 62.4365L292.634 61.4372L292.29 61.4245L292.253 62.4238L292.216 63.4231L292.56 63.4358L292.597 62.4365ZM292.253 62.4238H291.253V62.4434H292.253H293.253V62.4238H292.253ZM292.253 62.4434V61.4434H286.957V62.4434V63.4434H292.253V62.4434ZM286.957 62.4434H287.957V27.6689H286.957H285.957V62.4434H286.957ZM286.957 27.6689V28.6689H310.457V27.6689V26.6689H286.957V27.6689ZM247.22 31.6152V30.6152C245.078 30.6152 243.264 30.6809 241.782 30.8146L241.872 31.8105L241.962 32.8065C243.364 32.68 245.114 32.6152 247.22 32.6152V31.6152ZM241.872 31.8105L241.676 30.83L241.671 30.8309L241.867 31.8115L242.063 32.7921L242.068 32.7911L241.872 31.8105ZM241.867 31.8115L241.787 30.8147C240.287 30.9351 239.027 31.2303 238.027 31.7216L238.468 32.6191L238.909 33.5167C239.609 33.1728 240.6 32.9164 241.947 32.8083L241.867 31.8115ZM238.468 32.6191L238.152 31.6705L238.149 31.6714L238.465 32.6201L238.781 33.5688L238.784 33.5678L238.468 32.6191ZM238.465 32.6201L238.03 31.7198C237.017 32.2094 236.239 32.9932 235.701 34.0474L236.592 34.502L237.483 34.9565C237.837 34.2616 238.309 33.8063 238.9 33.5204L238.465 32.6201ZM236.592 34.502L235.695 34.0594C235.181 35.101 234.845 36.4869 234.663 38.1865L235.657 38.293L236.652 38.3994C236.821 36.8161 237.12 35.6904 237.489 34.9445L236.592 34.502ZM235.657 38.293L234.663 38.1865C234.481 39.8819 234.392 42.0272 234.392 44.6162L235.392 44.6162L236.392 44.6162C236.392 42.0651 236.48 39.9974 236.652 38.3994L235.657 38.293ZM235.392 44.6162H234.392V45.4951H235.392H236.392V44.6162H235.392ZM235.392 45.4951H234.392C234.392 47.997 234.482 50.0846 234.663 51.7509L235.657 51.6426L236.651 51.5343C236.48 49.9661 236.392 47.9568 236.392 45.4951H235.392ZM235.657 51.6426L234.663 51.7509C234.845 53.4228 235.183 54.7975 235.694 55.8503L236.594 55.4131L237.493 54.9759C237.12 54.2075 236.82 53.0831 236.651 51.5342L235.657 51.6426ZM236.594 55.4131L235.7 55.862C236.236 56.9277 237.007 57.7368 238.012 58.2714L238.481 57.3887L238.951 56.5059C238.336 56.1783 237.849 55.6843 237.487 54.9642L236.594 55.4131ZM238.481 57.3887L238.018 58.275C239.017 58.7969 240.277 59.1239 241.777 59.2743L241.877 58.2793L241.977 57.2843C240.635 57.1499 239.646 56.8689 238.945 56.5024L238.481 57.3887ZM241.877 58.2793L241.777 59.2743C243.261 59.423 245.077 59.4961 247.22 59.4961V58.4961V57.4961C245.117 57.4961 243.372 57.4241 241.977 57.2843L241.877 58.2793ZM247.22 58.4961V59.4961H256.236V58.4961V57.4961H247.22V58.4961ZM256.236 58.4961V59.4961C258.379 59.4961 260.194 59.423 261.678 59.2743L261.578 58.2793L261.478 57.2843C260.083 57.4241 258.34 57.4961 256.236 57.4961V58.4961ZM261.578 58.2793L261.678 59.2743C263.179 59.1239 264.434 58.7969 265.42 58.2725L264.95 57.3896L264.481 56.5068C263.8 56.8688 262.822 57.1496 261.478 57.2843L261.578 58.2793ZM264.95 57.3896L265.505 58.2217L265.508 58.2197L264.953 57.3877L264.398 56.5556L264.395 56.5576L264.95 57.3896ZM264.953 57.3877L265.417 58.2738C266.441 57.738 267.216 56.924 267.738 55.8503L266.839 55.4131L265.939 54.9759C265.595 55.6836 265.117 56.1737 264.49 56.5016L264.953 57.3877ZM266.839 55.4131L267.696 55.9276L267.699 55.9227L266.842 55.4082L265.984 54.8937L265.981 54.8986L266.839 55.4131ZM266.842 55.4082L267.736 55.8563C268.265 54.8013 268.61 53.4235 268.792 51.7499L267.798 51.6416L266.804 51.5333C266.635 53.0783 266.33 54.1973 265.948 54.9601L266.842 55.4082ZM267.798 51.6416L268.792 51.7501C268.974 50.084 269.064 47.9971 269.064 45.4951H268.064H267.064C267.064 47.9565 266.975 49.965 266.804 51.5331L267.798 51.6416ZM268.064 45.4951H269.064V44.6162H268.064H267.064V45.4951H268.064ZM268.064 44.6162L269.064 44.6162C269.064 42.0268 268.974 39.8816 268.792 38.1863L267.798 38.293L266.804 38.3996C266.975 39.9975 267.064 42.0652 267.064 44.6162L268.064 44.6162ZM267.798 38.293L268.792 38.1865C268.61 36.4848 268.265 35.0975 267.734 34.0544L266.843 34.5078L265.951 34.9612C266.328 35.7019 266.635 36.8211 266.804 38.3994L267.798 38.293ZM266.843 34.5078L267.7 33.9933L267.697 33.9884L266.84 34.5029L265.982 35.0174L265.985 35.0223L266.843 34.5078ZM266.84 34.5029L267.737 34.0603C267.212 32.9985 266.433 32.2098 265.4 31.7189L264.971 32.6221L264.541 33.5252C265.144 33.8116 265.606 34.2628 265.943 34.9455L266.84 34.5029ZM264.971 32.6221L265.377 31.7083L265.368 31.7044L264.962 32.6182L264.556 33.532L264.565 33.5359L264.971 32.6221ZM264.962 32.6182L265.409 31.7236C264.423 31.2309 263.168 30.935 261.668 30.8147L261.588 31.8115L261.508 32.8083C262.856 32.9165 263.836 33.1733 264.515 33.5127L264.962 32.6182ZM261.588 31.8115L261.784 30.8309L261.779 30.83L261.583 31.8105L261.387 32.7911L261.392 32.7921L261.588 31.8115ZM261.583 31.8105L261.673 30.8146C260.191 30.6809 258.378 30.6152 256.236 30.6152V31.6152V32.6152C258.343 32.6152 260.092 32.68 261.493 32.8065L261.583 31.8105ZM256.236 31.6152V30.6152H247.22V31.6152V32.6152H256.236V31.6152ZM292.597 44.1387V45.1387H310.748V44.1387V43.1387H292.597V44.1387ZM310.748 44.1387V45.1387C313.306 45.1387 315.333 45.0576 316.822 44.8934L316.712 43.8994L316.602 42.9054C315.221 43.0579 313.277 43.1387 310.748 43.1387V44.1387ZM316.712 43.8994L316.83 44.8924C318.325 44.7139 319.494 44.4037 320.275 43.9204L319.748 43.0703L319.221 42.2202C318.819 42.4693 318.004 42.7381 316.593 42.9065L316.712 43.8994ZM319.748 43.0703L320.348 43.8703L320.352 43.8674L319.752 43.0674L319.152 42.2674L319.148 42.2703L319.748 43.0703ZM319.752 43.0674L320.271 43.9224C321.081 43.4309 321.612 42.7212 321.838 41.8134L320.868 41.5713L319.898 41.3292C319.803 41.7116 319.605 41.987 319.233 42.2124L319.752 43.0674ZM320.868 41.5713L321.844 41.7907L321.907 41.5085L320.932 41.2891L319.956 41.0696L319.893 41.3519L320.868 41.5713ZM320.932 41.2891L321.912 41.4884C322.068 40.7174 322.145 39.7787 322.145 38.6797L321.145 38.6797L320.145 38.6797C320.145 39.6976 320.073 40.4931 319.952 41.0897L320.932 41.2891ZM321.145 38.6797H322.145V37.7998H321.145H320.145V38.6797H321.145ZM321.145 37.7998L322.145 37.7998C322.145 36.3837 322.009 35.2227 321.716 34.3435L320.768 34.6592L319.819 34.9749C320.014 35.5622 320.145 36.4796 320.145 37.7998L321.145 37.7998ZM320.768 34.6592L321.716 34.3433C321.402 33.4004 320.766 32.705 319.845 32.269L319.417 33.1729L318.989 34.0767C319.445 34.2926 319.687 34.5788 319.819 34.9751L320.768 34.6592ZM319.417 33.1729L319.845 32.269C318.954 31.8472 317.677 31.6002 316.06 31.4962L315.996 32.4941L315.932 33.4921C317.465 33.5907 318.441 33.8173 318.989 34.0767L319.417 33.1729ZM315.996 32.4941L316.239 31.524L316.235 31.523L315.992 32.4932L315.75 33.4633L315.754 33.4643L315.996 32.4941ZM315.992 32.4932L316.065 31.4959C314.452 31.3773 312.305 31.3193 309.63 31.3193V32.3193V33.3193C312.284 33.3193 314.376 33.3771 315.919 33.4905L315.992 32.4932ZM309.63 32.3193V31.3193H292.597V32.3193V33.3193H309.63V32.3193ZM292.597 32.3193H291.597V44.1387H292.597H293.597V32.3193H292.597Z" fill="#063251" mask="url(#path-5-outside-1_160_1543)"/>
<path d="M163.048 71.7007C164.377 71.7007 165.503 71.7641 166.421 71.8921L166.42 71.8931C167.35 72.0156 168.113 72.264 168.698 72.6509C169.299 73.0378 169.731 73.6098 169.994 74.353H169.993C170.254 75.0838 170.381 76.0405 170.381 77.2134V77.4136H168.131V77.2134C168.131 76.3066 168.047 75.6213 167.89 75.146V75.145C167.735 74.6721 167.481 74.3464 167.133 74.1479H167.131C166.775 73.9417 166.272 73.8066 165.607 73.7573H165.605C164.932 73.7011 164.08 73.6733 163.048 73.6733H159.164C158.249 73.6733 157.48 73.7011 156.858 73.7573H156.856C156.242 73.8066 155.755 73.9258 155.387 74.1069L155.386 74.1079C155.036 74.2767 154.765 74.5466 154.571 74.9272C154.381 75.3141 154.243 75.8557 154.167 76.562C154.091 77.2721 154.053 78.1804 154.053 79.2876V79.6665C154.053 80.7355 154.091 81.6179 154.167 82.3149C154.243 83.008 154.38 83.5476 154.571 83.9419C154.766 84.3301 155.04 84.6146 155.393 84.8022H155.392C155.76 84.9946 156.247 85.1257 156.86 85.187C157.481 85.2494 158.249 85.2808 159.164 85.2808H163.048C164.08 85.2808 164.934 85.2594 165.609 85.2153C166.275 85.1722 166.779 85.0463 167.136 84.8511L167.137 84.8501C167.483 84.6637 167.736 84.3516 167.89 83.8931C168.047 83.4177 168.131 82.7348 168.131 81.8345V81.6353H170.381V81.8345C170.381 83.0075 170.255 83.9619 169.993 84.687C169.729 85.4178 169.298 85.9798 168.697 86.3599V86.3608C168.112 86.7285 167.348 86.9645 166.418 87.0806C165.501 87.1954 164.377 87.2524 163.048 87.2524H159.164C157.712 87.2524 156.508 87.1539 155.558 86.9546V86.9556C154.599 86.7609 153.831 86.3929 153.27 85.8413L153.269 85.8403C152.713 85.2876 152.333 84.5029 152.115 83.5063L152.114 83.5054C151.905 82.5141 151.802 81.2329 151.802 79.6665V79.2876C151.802 77.9943 151.867 76.904 151.997 76.02C152.128 75.1267 152.355 74.3868 152.687 73.8091C153.019 73.2286 153.473 72.7817 154.047 72.4731L154.048 72.4722C154.621 72.1671 155.331 71.9679 156.169 71.8647V71.8638C157.003 71.7549 158.002 71.7007 159.164 71.7007H163.048ZM164.774 87.0132C164.245 87.0382 163.669 87.0522 163.048 87.0522H159.164C158.819 87.0522 158.488 87.0468 158.172 87.0356C158.323 87.041 158.476 87.0456 158.634 87.0483L159.164 87.0532H163.048C163.379 87.0532 163.697 87.0496 164.002 87.0425C164.27 87.0362 164.527 87.0249 164.774 87.0132ZM187.441 72.1011L196.078 86.6479L196.257 86.9497H193.629L193.571 86.8462L191.778 83.6157H180.293L178.499 86.8462L178.442 86.9497H175.813L175.993 86.6479L184.63 72.1011L184.688 72.0034H187.383L187.441 72.1011ZM212.413 72.0034C213.864 72.0034 215.038 72.073 215.934 72.2144C216.834 72.3553 217.542 72.5964 218.034 72.9507H218.033C218.527 73.2995 218.861 73.7761 219.034 74.3726C219.202 74.9461 219.283 75.6517 219.283 76.4839V76.8628C219.283 77.6585 219.199 78.3461 219.024 78.9194L219.023 78.9185C218.871 79.4311 218.591 79.8597 218.186 80.1997L218.004 80.3403C217.501 80.6992 216.79 80.9523 215.889 81.1128H215.888C214.985 81.267 213.807 81.3432 212.355 81.3433H204.555V86.9497H202.304V72.0034H212.413ZM227.809 86.9497H225.558V72.0034H227.809V86.9497ZM251.315 73.9185H243.912V86.9497H241.662V73.9185H234.259V72.0034H251.315V73.9185ZM264.869 72.1011L273.506 86.6479L273.685 86.9497H271.057L270.999 86.8462L269.205 83.6157H257.721L255.927 86.8462L255.869 86.9497H253.241L253.421 86.6479L262.058 72.1011L262.115 72.0034H264.811L264.869 72.1011ZM281.942 85.0347H293.663V86.9497H279.691V72.0034H281.942V85.0347ZM155.913 86.8198C155.923 86.8216 155.933 86.823 155.943 86.8247C155.824 86.8041 155.709 86.7827 155.598 86.7593L155.913 86.8198ZM168.591 86.1909L168.769 86.0688C168.774 86.0648 168.779 86.0602 168.784 86.0562C168.722 86.1033 168.658 86.1487 168.591 86.1909ZM155.982 85.2368C155.993 85.2397 156.005 85.2418 156.016 85.2446C155.94 85.2251 155.867 85.2046 155.796 85.1821L155.982 85.2368ZM281.742 85.2349H293.464V85.2339H281.742V85.2349ZM169.806 84.6187C169.746 84.7851 169.675 84.9415 169.598 85.0884C169.635 85.0182 169.671 84.9463 169.704 84.8716L169.806 84.6196C169.837 84.5329 169.866 84.4422 169.894 84.3481V84.3472C169.866 84.4413 169.837 84.5318 169.806 84.6187ZM181.448 81.7007H190.623L186.035 73.813L181.448 81.7007ZM258.875 81.7007H268.051L263.463 73.813L258.875 81.7007ZM152.002 79.6665L152.007 80.2368C152.008 80.2886 152.009 80.34 152.01 80.3911C152.005 80.1567 152.002 79.9148 152.002 79.6655V79.6665ZM212.057 79.5708H204.354V79.5718H212.057C212.148 79.5718 212.237 79.5693 212.325 79.5688C212.237 79.5693 212.148 79.5708 212.057 79.5708ZM204.555 79.3716H212.057C213.203 79.3716 214.113 79.3363 214.791 79.2681C215.467 79.1936 215.953 79.0651 216.267 78.895C216.573 78.7219 216.769 78.486 216.868 78.1841C216.975 77.851 217.032 77.4127 217.032 76.8628V76.4839C217.032 75.9679 216.989 75.5535 216.906 75.2358L216.869 75.106C216.77 74.798 216.574 74.5665 216.271 74.4067C215.96 74.2425 215.474 74.1259 214.797 74.0698H214.795C214.116 74.0073 213.204 73.9761 212.057 73.9761H204.555V79.3716ZM170.182 77.2134L170.177 76.8403C170.177 76.8361 170.176 76.8319 170.176 76.8276C170.179 76.9532 170.182 77.0819 170.182 77.2134ZM218.898 74.6421C218.951 74.8607 218.992 75.0983 219.022 75.355H219.023C218.993 75.0983 218.952 74.8607 218.899 74.6421H218.898ZM169.806 74.4194L169.718 74.1938C169.715 74.1869 169.711 74.1803 169.708 74.1733C169.742 74.253 169.776 74.3348 169.806 74.4194ZM167.231 73.9751C167.281 74.0035 167.329 74.0341 167.375 74.0669L167.376 74.0659C167.33 74.033 167.281 74.0025 167.231 73.9741V73.9751ZM156.39 73.6099C156.352 73.6156 156.314 73.622 156.277 73.6284C156.384 73.6099 156.495 73.5937 156.61 73.5806L156.39 73.6099ZM157.894 73.4937C157.839 73.4957 157.785 73.4992 157.731 73.5015C157.973 73.491 158.23 73.4826 158.502 73.478L157.894 73.4937ZM215.902 72.4126C216.235 72.4647 216.537 72.5301 216.81 72.6089V72.6079C216.537 72.5292 216.235 72.4637 215.902 72.4116V72.4126ZM157.741 71.9312C157.699 71.9331 157.657 71.9358 157.615 71.938C157.844 71.9262 158.081 71.9168 158.327 71.9106L157.741 71.9312Z" fill="#063251"/>
</svg>
