<svg width="257" height="84" viewBox="0 0 257 84" fill="none" xmlns="http://www.w3.org/2000/svg">
<path d="M44.1397 27.4758C43.6911 28.6031 42.4097 29.8742 42.3594 31.381C42.3522 31.6021 43.5008 35.3747 43.6049 35.5773C44.1721 36.701 46.6236 36.4689 47.7112 36.8889C49.1146 37.4305 53.4578 41.8147 54.4915 43.1926C57.4169 47.1052 58.2209 51.0584 56.7026 55.8368L55.274 51.4194C55.3781 53.5047 55.2561 55.3578 54.8038 57.3878C54.2295 59.9594 52.0077 62.9584 51.7492 64.9663C51.5985 66.1489 52.1225 66.9815 52.0256 68.1347C51.9287 69.2878 51.0852 70.2568 50.9524 71.4873C50.3673 76.9178 54.3731 79.191 55.2704 83.8405H49.3479C48.3968 83.8405 48.9998 79.9684 48.8131 79.7842C48.7054 79.681 47.7112 79.8505 47.3738 79.7842V74.4421C47.3738 74.3278 47.0436 73.8194 47.0005 73.3515C46.6344 69.5236 46.5267 66.1636 43.429 63.3857C44.5776 62.7263 45.5504 64.4873 46.6487 64.4984C45.5288 63.1021 45.6581 59.4399 44.7033 58.3936C44.2223 57.8631 42.6071 57.27 41.8174 56.5663C39.5489 54.54 38.4793 50.7784 38.7557 47.7352L38.0629 51.53L34.4485 53.4457C34.4808 54.2305 38.2173 52.7642 38.3896 52.8931C39.2654 55.2178 38.5367 55.3026 36.6954 56.1205C33.2747 57.6384 29.9402 57.7342 26.5411 56.0394C23.9352 54.7426 24.0393 53.6705 22.6932 51.5263C22.5174 51.2426 22.4348 50.4836 21.8928 51.051C21.7564 51.1947 21.1498 54.0168 20.7622 54.8678C17.302 62.4352 13.0988 63.1426 8.23879 68.1715C5.93081 70.5589 4.0428 75.1457 4.67094 78.491C4.91143 79.7768 7.59629 81.8473 7.17633 83.8405H1.25385C0.370859 83.8405 0.866187 80.7236 0.708254 80.0421C0.643645 79.7657 0.0765297 79.8173 0.00833145 79.5373C-0.163959 78.8263 2.38809 66.2631 2.83318 65.1984C3.22083 64.2736 4.07151 64.1263 4.66735 63.3968C7.64295 59.7347 5.57905 54.7684 6.92148 50.2368C7.37734 48.6931 8.38595 47.1568 9.33355 45.9005C5.67956 46.1068 1.71687 45.5615 1.22154 41.1147C0.349314 33.3152 13.185 31.8342 13.5618 24.6168C13.7736 20.5678 10.4642 22.4615 9.60634 20.38C8.96384 18.8215 9.50584 16.6184 9.33714 14.9495C10.6293 15.5168 13.1455 16.3237 13.727 17.6242C14.2725 18.8474 15.2453 25.5563 15.0837 26.9305C14.3946 32.921 1.56971 35.0468 4.22227 41.38C4.56685 42.2015 5.89133 43.0563 6.72407 43.2294C9.41969 43.7931 17.8799 41.52 20.8268 40.5584C24.2403 39.4457 26.76 37.3752 29.0644 34.6452C34.2941 28.4521 37.7076 16.751 47.381 17.5247C47.8512 21.371 43.1778 19.3742 41.279 21.7615C42.8583 21.861 44.3838 21.1757 45.9308 21.9642C46.2072 22.3694 44.7858 25.6926 44.5059 26.3668C44.3443 26.7536 44.2797 27.1442 44.1469 27.4721L44.1397 27.4758ZM34.0895 53.6373H32.6574V53.9984H34.0895V53.6373Z" fill="#F7BE45"/>
<path d="M44.4992 26.3705C45.3678 26.5657 45.2422 25.9173 45.5114 25.4015C46.678 23.1431 48.907 18.3868 48.4583 15.8778C48.2035 14.4521 42.9522 13.5347 42.342 11.6374L42.1697 13.8442C39.7146 11.4973 38.749 8.61258 39.1151 5.18626C39.2085 4.31311 40.7304 -1.309 41.2616 1.51311C42.0333 5.62469 41.3047 8.05626 45.5724 10.3515C50.5904 13.0521 51.1539 10.4289 55.0376 10.5578C58.9214 10.6868 60.6407 13.5126 65.5761 11.711C70.4002 9.94995 70.6981 5.99311 71.0499 1.48733C71.4016 -3.01846 73.4261 4.00363 73.5732 5.55837C74.4347 14.6731 68.3578 15.8189 61.014 16.0584C62.5143 19.05 66.0678 16.7105 67.8482 16.9463C68.9752 17.0936 73.1317 19.2047 71.7821 20.66C71.0355 21.4668 65.6838 23.261 65.6873 23.6073C66.4124 24.5063 67.6113 25.14 67.8374 26.3668L68.1963 25.2652C68.925 24.2668 69.9659 31.8452 70.0018 32.4347C70.5617 41.3505 67.8338 48.1294 61.0176 53.6336C63.1496 46.5526 62.5395 33.4736 52.7584 34.1036C53.7814 31.0973 58.286 32.1363 60.2853 29.8668C58.1425 31.02 55.4827 30.9131 53.3327 31.9373C51.6852 32.7221 50.3176 34.8994 48.4619 35.4078C44.7182 36.4357 44.3808 34.5936 43.1245 31.6205L44.1439 27.4757C44.2767 27.1478 44.3413 26.7573 44.5028 26.3705H44.4992ZM57.0621 19.7426L54.1726 19.901L51.6816 21.9457L55.174 22.0821L57.0621 19.7426ZM68.907 19.7426C67.3636 19.4516 65.795 20.3615 64.3808 20.4426C63.7096 20.4831 62.9522 19.8384 62.4497 20.2878C64.0039 22.6642 67.3097 21.5515 68.907 19.7389V19.7426Z" fill="#F7BE45"/>
<path d="M28.1664 83.8442C27.2583 83.5568 27.7859 79.9094 27.2368 79.4599C26.946 79.2242 25.8979 79.6294 25.521 79.3752C25.399 79.2942 24.796 77.2015 24.4658 76.5899C23.5253 74.8584 19.2863 69.1552 19.0781 68.0978C18.9166 67.2984 20.3451 61.5842 20.8333 61.2047C22.4342 59.9521 27.3373 62.2547 29.4299 62.1073C29.3294 64.7526 24.8606 66.9852 25.1873 69.5568C25.7616 74.0921 33.6295 78.7452 33.7372 83.8405H28.1736L28.1664 83.8442Z" fill="#F7BE45"/>
<path d="M61.0238 70.5699C60.0259 68.0573 61.433 61.4957 64.5952 65.0547C63.9025 62.7484 65.8802 62.3026 66.4761 60.9063C67.0073 59.6684 66.7776 57.8852 67.8185 56.7615C64.6168 57.6384 61.7488 59.6684 58.5112 60.4678C58.1236 60.5636 56.6986 61.0242 56.7022 60.2726C60.4459 58.3863 63.3605 55.1552 65.8192 51.762L68.5399 47.3778C68.5256 48.1884 67.6713 50.0452 67.9872 50.6899C68.9097 52.5726 72.7144 52.0199 71.9678 55.8663C71.6161 57.6752 69.0281 63.8942 67.98 65.4047C67.2119 66.5136 62.097 71.3289 61.0166 70.5773L61.0238 70.5699Z" fill="#F7BE45"/>
<path d="M112.602 19.5986C114.977 19.5986 116.971 19.6721 118.577 19.8213C120.212 19.9731 121.579 20.3286 122.632 20.9297C123.73 21.5567 124.498 22.5289 124.945 23.79L125.026 24.0254C125.418 25.2271 125.599 26.7769 125.599 28.6387V29.3887H120.763V28.6387C120.763 27.1595 120.612 26.1349 120.363 25.502L120.358 25.4902C120.132 24.8831 119.782 24.5258 119.316 24.334L119.312 24.333C118.764 24.1031 117.96 23.9562 116.86 23.9346C115.721 23.9122 114.301 23.9014 112.602 23.9014H105.34C103.274 23.9014 101.629 23.9402 100.401 24.0176C99.1927 24.0944 98.3587 24.2681 97.8428 24.4961C97.3869 24.6976 97.1124 24.9931 96.9648 25.3984L96.9658 25.3994C96.7948 25.9074 96.6914 26.6651 96.6914 27.71C96.6914 28.4795 96.7483 29.079 96.8467 29.5254L96.8916 29.707L96.9316 29.834C97.0375 30.1173 97.2286 30.338 97.5342 30.5117C97.938 30.7225 98.634 30.9058 99.6924 31.0146C100.764 31.1133 102.242 31.1748 104.133 31.1973H104.134L114.487 31.332L114.488 31.333C116.937 31.367 118.921 31.5086 120.424 31.7656H120.423C121.927 32.0099 123.151 32.4236 124.008 33.0664H124.009C124.882 33.713 125.457 34.5934 125.729 35.6709L125.822 36.0557C126.024 36.9774 126.119 38.0715 126.119 39.3252C126.119 40.8889 125.966 42.2422 125.639 43.3672L125.638 43.3662C125.303 44.5468 124.64 45.509 123.658 46.2275C122.681 46.9431 121.331 47.4163 119.675 47.6963C118.018 47.9763 115.87 48.1113 113.244 48.1113H105.114C102.722 48.1113 100.696 48.0097 99.0449 47.8018C97.3693 47.5908 95.966 47.1627 94.8809 46.4766L94.8721 46.4707C93.7642 45.7484 92.986 44.685 92.5225 43.334C92.0678 42.0083 91.8564 40.294 91.8564 38.2275V37.4775H96.6914V38.2275C96.6914 39.7869 96.8247 40.9275 97.0586 41.6885C97.2794 42.4065 97.6376 42.8581 98.1006 43.1289C98.6368 43.4237 99.4435 43.634 100.577 43.709H100.576C101.76 43.7752 103.272 43.8096 105.114 43.8096H113.07C114.875 43.8096 116.333 43.7621 117.451 43.6699L117.91 43.627C119.073 43.4958 119.83 43.2644 120.266 42.9932C120.671 42.7304 120.926 42.37 121.044 41.8711L121.047 41.8594C121.199 41.2575 121.284 40.4202 121.284 39.3252C121.284 38.3526 121.204 37.6437 121.069 37.166V37.165C120.969 36.8117 120.758 36.5559 120.374 36.373L120.363 36.3672C119.932 36.1534 119.172 35.9803 118.007 35.9033H118C116.829 35.8149 115.212 35.7534 113.146 35.7197V35.7188L103.488 35.584C101.085 35.55 99.1241 35.4083 97.6221 35.1514C96.1237 34.8951 94.902 34.4804 94.0293 33.8574L94.0234 33.8535C93.144 33.2123 92.5494 32.3484 92.25 31.29L92.2471 31.2822C91.9809 30.2967 91.8565 29.0997 91.8564 27.71C91.8565 26.1859 92.0289 24.8783 92.4023 23.8145L92.4053 23.8066C92.8127 22.6852 93.5461 21.8023 94.5801 21.1758L94.584 21.1738C95.6117 20.5593 97.0002 20.1627 98.6943 19.9424V19.9434C100.385 19.7123 102.546 19.5986 105.166 19.5986H112.602ZM198.951 19.5986C201.056 19.5986 202.874 19.695 204.397 19.8916L204.396 19.8926C205.936 20.08 207.257 20.4468 208.333 21.0186C209.445 21.6032 210.324 22.4528 210.961 23.5518C211.59 24.6384 212.013 26.0094 212.253 27.6328L212.336 28.251C212.518 29.732 212.608 31.4896 212.608 33.5176V34.1924C212.608 36.9972 212.416 39.3126 212.018 41.1191C211.627 42.948 210.914 44.4257 209.829 45.4814L209.83 45.4824C208.762 46.5332 207.308 47.2133 205.53 47.5713L205.531 47.5723C203.783 47.9356 201.584 48.1113 198.951 48.1113H191.95C189.317 48.1113 187.118 47.9356 185.37 47.5723V47.5713C183.593 47.2132 182.135 46.5334 181.057 45.4854L181.054 45.4824C179.982 44.4278 179.269 42.9509 178.866 41.124L178.865 41.1201C178.527 39.5407 178.343 37.5704 178.302 35.2227L178.293 34.1924V33.5176C178.293 31.1998 178.41 29.2351 178.648 27.6328C178.889 26.0096 179.31 24.6384 179.939 23.5518C180.575 22.455 181.447 21.6059 182.547 21.0205L182.551 21.0186C183.637 20.4475 184.963 20.0803 186.504 19.8926V19.8916C188.028 19.6949 189.845 19.5986 191.95 19.5986H198.951ZM140.682 31.4844H163.642V20.1387H168.477V47.5713H163.642V35.6855H140.682V47.5713H135.847V20.1387H140.682V31.4844ZM241.05 20.1387C243.672 20.1387 245.807 20.2513 247.443 20.4834L247.442 20.4844C249.09 20.7165 250.429 21.1264 251.387 21.7686C252.354 22.4175 253.015 23.3159 253.354 24.4365C253.673 25.4879 253.821 26.7776 253.821 28.2832V28.959C253.821 30.3661 253.645 31.6155 253.277 32.6914L253.278 32.6924C252.895 33.8365 252.147 34.7556 251.081 35.4463L251.076 35.4502C250.214 35.9986 249.063 36.3885 247.664 36.6533L252.967 46.4648L253.564 47.5713H248.524L248.312 47.1777L242.851 37.083C242.756 37.0846 242.658 37.0869 242.561 37.0869H227.276V47.5713H222.441V20.1387H241.05ZM223.941 46.0713H223.978V21.6387H223.941V46.0713ZM191.95 23.9014C190.308 23.9014 188.935 23.9512 187.83 24.0498L187.822 24.0508C186.744 24.1364 185.918 24.3421 185.312 24.6367L185.308 24.6387C184.762 24.8996 184.335 25.3143 184.022 25.917L183.907 26.168C183.648 26.7831 183.449 27.619 183.332 28.7021C183.197 29.9483 183.128 31.5512 183.128 33.5176V34.1924C183.128 36.0904 183.197 37.6487 183.332 38.8721C183.465 40.0805 183.705 40.9907 184.021 41.6367L184.145 41.8623C184.446 42.3677 184.84 42.7403 185.328 42.998C185.935 43.3119 186.761 43.5369 187.837 43.6436C188.939 43.7528 190.309 43.8096 191.95 43.8096H198.951C200.592 43.8096 201.961 43.7527 203.063 43.6436C204.14 43.5369 204.958 43.3125 205.551 43.001L205.555 42.998C206.124 42.7034 206.556 42.2615 206.859 41.6455L206.863 41.6367C207.19 40.9929 207.435 40.0833 207.568 38.8721C207.703 37.6488 207.772 36.0906 207.772 34.1924V33.5176C207.772 31.797 207.72 30.3548 207.616 29.1865L207.568 28.7021C207.435 27.4665 207.19 26.5546 206.866 25.9258L206.861 25.917C206.562 25.3178 206.138 24.9029 205.58 24.6406L205.574 24.6377L205.567 24.6338C204.976 24.3415 204.157 24.1364 203.078 24.0508L203.071 24.0498C201.966 23.9512 200.594 23.9014 198.951 23.9014H191.95ZM227.276 32.7842H241.275C243.245 32.7842 244.772 32.722 245.867 32.6025C246.978 32.4711 247.685 32.2561 248.076 32.0166L248.082 32.0127C248.462 31.7848 248.682 31.4856 248.782 31.0889V31.0879C248.912 30.5744 248.985 29.8713 248.985 28.959V28.2832C248.985 27.2509 248.883 26.4987 248.712 25.9902C248.573 25.5778 248.306 25.2738 247.854 25.0625C247.357 24.8296 246.536 24.6521 245.328 24.5752L245.321 24.5742C244.108 24.4861 242.472 24.4414 240.407 24.4414H227.276V32.7842ZM93.9443 24.0098C93.8977 24.1099 93.8541 24.2128 93.8154 24.3193L93.8145 24.3184C93.737 24.54 93.6689 24.7806 93.6104 25.04C93.6683 24.7935 93.735 24.5607 93.8105 24.3418C93.8512 24.228 93.896 24.1175 93.9443 24.0098Z" fill="white"/>
<path d="M126.597 54.3896C127.63 54.3897 128.505 54.4386 129.221 54.5381L129.22 54.5391C129.946 54.6345 130.545 54.8285 131.007 55.1328C131.483 55.4385 131.824 55.8899 132.031 56.4736L132.103 56.6963C132.259 57.2356 132.335 57.9075 132.335 58.7051V58.9053H130.497V58.7051C130.497 58.0044 130.433 57.4786 130.313 57.1172H130.312C130.195 56.7596 130.004 56.5175 129.745 56.3701L129.744 56.3691C129.476 56.214 129.093 56.1112 128.58 56.0732H128.578C128.057 56.0298 127.397 56.0078 126.597 56.0078H123.58C122.87 56.0078 122.275 56.0299 121.794 56.0732H121.792C121.319 56.1112 120.946 56.2019 120.667 56.3389L120.666 56.3398C120.404 56.4661 120.2 56.6683 120.054 56.9551C119.909 57.2481 119.804 57.6621 119.745 58.2061C119.686 58.7537 119.656 59.4551 119.656 60.3115V60.6055C119.656 61.4327 119.686 62.1146 119.745 62.6523C119.804 63.1864 119.909 63.5985 120.055 63.8975L120.112 64.0029C120.254 64.2414 120.44 64.4198 120.671 64.543C120.951 64.6886 121.323 64.7897 121.796 64.8369H121.797C122.277 64.885 122.871 64.9092 123.58 64.9092H126.597C127.397 64.9092 128.058 64.8924 128.581 64.8584H128.582C129.031 64.8293 129.382 64.7521 129.643 64.6348L129.75 64.5811C130.007 64.4429 130.197 64.2105 130.313 63.8643C130.433 63.5028 130.497 62.98 130.497 62.2852V62.085H132.335V62.2852C132.335 63.1964 132.236 63.9411 132.03 64.5098C131.848 65.0124 131.566 65.416 131.179 65.71L131.006 65.8291C130.544 66.1185 129.944 66.3032 129.218 66.3936C128.504 66.4828 127.629 66.5273 126.597 66.5273H123.58C122.45 66.5273 121.512 66.4512 120.771 66.2959V66.2949C120.021 66.1428 119.416 65.8555 118.973 65.4209L118.972 65.4199C118.532 64.9839 118.234 64.3673 118.063 63.5898V63.5889C117.9 62.8167 117.819 61.8204 117.819 60.6055V60.3115C117.819 59.3084 117.87 58.4611 117.972 57.7734C118.074 57.0784 118.251 56.4997 118.512 56.0459L118.615 55.8789C118.866 55.5021 119.191 55.2058 119.587 54.9932L119.762 54.9062C120.18 54.7146 120.678 54.5858 121.251 54.5156V54.5166C121.9 54.4321 122.677 54.3897 123.58 54.3896H126.597ZM127.337 66.3184C127.1 66.3239 126.854 66.3271 126.597 66.3271L127.337 66.3193C127.574 66.3138 127.8 66.305 128.017 66.2939L127.337 66.3184ZM145.575 54.7217L152.28 65.9902L152.46 66.292H150.314L150.258 66.1895L148.877 63.71H140.013L138.633 66.1895L138.575 66.292H136.43L136.609 65.9902L143.315 54.7217L143.373 54.624H145.517L145.575 54.7217ZM164.925 54.624C166.052 54.624 166.968 54.6781 167.666 54.7881L167.665 54.7891C168.368 54.8988 168.925 55.0859 169.315 55.3662H169.314C169.707 55.6426 169.972 56.0203 170.109 56.4922L170.155 56.665C170.256 57.0807 170.305 57.574 170.305 58.1406V58.4336C170.305 59.052 170.237 59.5879 170.101 60.0371L170.102 60.0381C169.981 60.4442 169.757 60.7837 169.436 61.0527L169.292 61.1641C168.894 61.4475 168.335 61.6456 167.632 61.7705H167.631C166.927 61.8906 166.008 61.9492 164.88 61.9492H158.868V66.292H157.031V54.624H164.925ZM176.924 66.292H175.087V54.624H176.924V66.292ZM195.175 56.1982H189.427V66.292H187.59V56.1982H181.842V54.624H195.175V56.1982ZM205.691 54.7217L212.396 65.9902L212.576 66.292H210.431L210.374 66.1895L208.993 63.71H200.129L198.748 66.1895L198.691 66.292H196.546L196.726 65.9902L203.432 54.7217L203.489 54.624H205.633L205.691 54.7217ZM218.954 64.7188H228.055V66.292H217.117V54.624H218.954V64.7188ZM129.193 66.1953L129.421 66.1631L129.434 66.1602C129.355 66.1731 129.275 66.1851 129.193 66.1953ZM130.899 65.6592C130.796 65.7241 130.683 65.7825 130.563 65.8369C130.621 65.8106 130.678 65.7846 130.732 65.7559L130.899 65.6602V65.6592ZM140.962 62.1357H147.929L144.445 56.1602L140.962 62.1357ZM201.078 62.1357H208.044L204.561 56.1602L201.078 62.1357ZM164.88 61.749L165.585 61.7402C165.594 61.74 165.603 61.7385 165.611 61.7383C165.379 61.7443 165.135 61.749 164.88 61.749ZM158.868 60.3311H164.648C165.537 60.331 166.243 60.3046 166.767 60.252C167.291 60.1943 167.663 60.095 167.898 59.9668C168.126 59.838 168.269 59.6645 168.342 59.4434L168.396 59.2383C168.442 59.0182 168.467 58.7509 168.467 58.4336V58.1406C168.467 57.6862 168.422 57.3375 168.342 57.0869L168.312 57.0039C168.232 56.8178 168.097 56.675 167.9 56.5713C167.666 56.4481 167.297 56.3578 166.772 56.3145H166.771C166.246 56.2662 165.539 56.2422 164.648 56.2422H158.868V60.3311ZM131.843 56.541L131.774 56.3662C131.772 56.3609 131.769 56.3559 131.767 56.3506C131.793 56.4122 131.82 56.4755 131.843 56.541ZM120.579 56.1592C120.553 56.1717 120.528 56.1863 120.503 56.2002L120.579 56.1602C120.63 56.1353 120.683 56.1117 120.738 56.0898C120.683 56.1116 120.63 56.1344 120.579 56.1592ZM128.595 55.874C128.661 55.8789 128.725 55.8846 128.788 55.8916C128.725 55.8846 128.661 55.8779 128.595 55.873C128.471 55.8627 128.339 55.8536 128.199 55.8457C128.339 55.8537 128.47 55.8637 128.595 55.874ZM119.681 55.1689C119.602 55.2109 119.527 55.2567 119.455 55.3057C119.528 55.2566 119.603 55.211 119.682 55.1689C119.705 55.1563 119.729 55.144 119.754 55.1318C119.729 55.1441 119.705 55.1562 119.681 55.1689ZM129.193 54.7363L128.78 54.6865C128.754 54.6838 128.727 54.6814 128.7 54.6787C128.873 54.6956 129.037 54.7146 129.193 54.7363Z" fill="white"/>
</svg>
