<svg width="52" height="52" viewBox="0 0 52 52" fill="none" xmlns="http://www.w3.org/2000/svg">
<path d="M41.8746 25.558V12H3V32.3355H34.8683C35.4713 28.7771 38.3219 25.9936 41.8746 25.558ZM38.3896 14.1403C39.7672 13.8873 39.9794 16.0787 38.5795 16.1049C37.4343 16.1314 37.2606 14.3409 38.3896 14.1403ZM6.48519 14.1403C7.61374 14.3411 7.44034 16.1317 6.29508 16.1049C4.89403 16.0786 5.10723 13.8872 6.48519 14.1403ZM6.29508 30.2141C4.89448 30.1893 5.10678 27.9962 6.48519 28.2504C7.61401 28.4492 7.44016 30.2429 6.29508 30.2141ZM23.4119 28.8079V29.2227C23.4119 29.7703 22.9756 30.2144 22.4373 30.2144C21.8991 30.2144 21.4628 29.7703 21.4628 29.2227V28.8086C20.9037 28.6501 20.3865 28.3563 19.9544 27.9427C19.5623 27.5675 19.5432 26.9399 19.912 26.5408C20.2807 26.1418 20.8975 26.1226 21.2896 26.4977C21.3442 26.55 21.4027 26.5966 21.4628 26.6405V23.4082C19.9344 22.9737 18.8096 21.5449 18.8096 19.8528C18.8096 18.1608 19.9344 16.7321 21.4628 16.2976V15.113C21.4628 14.5653 21.8991 14.1213 22.4373 14.1213C22.9756 14.1213 23.4119 14.5653 23.4119 15.113V16.2965C24.007 16.4646 24.553 16.7859 25.0021 17.2428C25.3826 17.6301 25.3827 18.258 25.0021 18.6454C24.6216 19.0327 24.0045 19.0328 23.6238 18.6455C23.5578 18.5783 23.4863 18.519 23.4119 18.4646V21.6974C24.9402 22.1319 26.065 23.5607 26.065 25.2527C26.065 26.9447 24.9402 28.3735 23.4119 28.8079Z" fill="#51A8EE"/>
<path d="M20.7588 19.8528C20.7588 20.4248 21.0374 20.9307 21.4627 21.2409V18.4648C21.0374 18.775 20.7588 19.2809 20.7588 19.8528Z" fill="#51A8EE"/>
<path d="M23.4121 23.8645V26.6405C23.8374 26.3304 24.116 25.8244 24.116 25.2525C24.116 24.6806 23.8374 24.1746 23.4121 23.8645Z" fill="#51A8EE"/>
<path d="M42.8479 27.4797C39.4559 27.4797 36.6963 30.288 36.6963 33.7399C36.6963 37.1917 39.4559 40 42.8479 40C46.2399 40 48.9995 37.1918 48.9995 33.7399C48.9995 30.2879 46.2399 27.4797 42.8479 27.4797ZM45.6706 35.2098C46.0512 35.5971 46.0512 36.2251 45.6706 36.6124C45.4802 36.8061 45.2309 36.9029 44.9814 36.9029C44.732 36.9029 44.4826 36.8061 44.2922 36.6124L42.8477 35.1426L41.4033 36.6124C41.2129 36.8061 40.9635 36.9029 40.7141 36.9029C40.4647 36.9029 40.2153 36.8061 40.0249 36.6124C39.6443 36.2251 39.6443 35.5971 40.0249 35.2098L41.4693 33.7399L40.0249 32.2701C39.6443 31.8828 39.6443 31.2548 40.0249 30.8675C40.4056 30.4803 41.0225 30.4803 41.4032 30.8675L42.8476 32.3373L44.2921 30.8675C44.6729 30.4803 45.2899 30.4804 45.6704 30.8675C46.051 31.2548 46.051 31.8828 45.6704 32.2701L44.226 33.7399L45.6706 35.2098Z" fill="#F7BE45"/>
</svg>
