<svg width="52" height="52" viewBox="0 0 52 52" fill="none" xmlns="http://www.w3.org/2000/svg">
<path fill-rule="evenodd" clip-rule="evenodd" d="M44.3706 26C44.3706 29.6334 43.2932 33.1851 41.2746 36.2062C39.256 39.2272 36.3869 41.5818 33.0301 42.9722C29.6734 44.3627 25.9796 44.7265 22.4161 44.0176C18.8525 43.3088 15.5792 41.5592 13.01 38.99C10.4408 36.4208 8.69121 33.1475 7.98237 29.5839C7.27354 26.0204 7.63734 22.3267 9.02777 18.9699C10.4182 15.6131 12.7728 12.744 15.7938 10.7254C18.8149 8.70679 22.3666 7.62938 26 7.62938C30.8722 7.62938 35.5448 9.56485 38.99 13.01C42.4352 16.4552 44.3706 21.1278 44.3706 26ZM48.75 26C48.75 30.4995 47.4157 34.898 44.9159 38.6392C42.4161 42.3804 38.8631 45.2964 34.7061 47.0183C30.549 48.7402 25.9748 49.1907 21.5617 48.3129C17.1486 47.4351 13.095 45.2683 9.91333 42.0867C6.73169 38.905 4.56496 34.8514 3.68715 30.4383C2.80933 26.0252 3.25986 21.451 4.98175 17.294C6.70364 13.1369 9.61957 9.58387 13.3608 7.08407C17.102 4.58426 21.5005 3.25 26 3.25C32.0337 3.25 37.8202 5.64687 42.0867 9.91332C46.3531 14.1798 48.75 19.9663 48.75 26Z" fill="#51A8EE"/>
<path d="M14.4059 11.7568C13.4314 12.5458 12.541 13.4335 11.749 14.4056L12.1309 14.7793L12.6021 15.2506C12.7715 15.4435 12.9787 15.5995 13.2108 15.7091C13.4429 15.8188 13.6951 15.8796 13.9516 15.8879C14.2082 15.8962 14.4637 15.8518 14.7024 15.7574C14.9411 15.663 15.158 15.5207 15.3395 15.3392C15.521 15.1576 15.6633 14.9408 15.7577 14.7021C15.8521 14.4634 15.8965 14.2079 15.8882 13.9513C15.8799 13.6947 15.8191 13.4426 15.7095 13.2105C15.5998 12.9784 15.4438 12.7712 15.2509 12.6018L14.7796 12.1306L14.4059 11.7568ZM37.5947 11.7568L36.7822 12.5693C36.4675 12.9276 36.301 13.3921 36.3164 13.8686C36.3318 14.3451 36.528 14.7979 36.8652 15.1351C37.2023 15.4722 37.6551 15.6684 38.1316 15.6838C38.6081 15.6992 39.0727 15.5327 39.4309 15.2181L39.9022 14.7468L40.284 14.3731C39.4801 13.4106 38.5789 12.5339 37.5947 11.7568ZM13.9265 36.1968C13.6808 36.1956 13.4372 36.2431 13.2099 36.3365C12.9826 36.43 12.776 36.5675 12.6021 36.7412L11.7896 37.5943C12.5772 38.5729 13.468 39.4636 14.4465 40.2512L14.8121 39.8693L15.2915 39.3981C15.5534 39.1351 15.7314 38.8005 15.8031 38.4363C15.8748 38.0722 15.837 37.6951 15.6944 37.3525C15.5518 37.0099 15.3108 36.7172 15.0019 36.5115C14.693 36.3058 14.3301 36.1963 13.959 36.1968H13.9265ZM38.074 36.1968C37.7029 36.1963 37.34 36.3058 37.0311 36.5115C36.7223 36.7172 36.4813 37.0099 36.3387 37.3525C36.1961 37.6951 36.1582 38.0722 36.2299 38.4363C36.3016 38.8005 36.4797 39.1351 36.7415 39.3981L37.5947 40.2106C38.5692 39.4216 39.4596 38.534 40.2515 37.5618L39.439 36.7087C39.2577 36.5359 39.0433 36.4015 38.8087 36.3135C38.5742 36.2256 38.3243 36.1859 38.074 36.1968Z" fill="white"/>
<path d="M26 10.9443C25.569 10.9443 25.1557 11.1155 24.851 11.4203C24.5462 11.725 24.375 12.1384 24.375 12.5693V26C24.3768 26.4302 24.5492 26.8422 24.8544 27.1456L27.9581 30.2493C28.269 30.5156 28.6689 30.6547 29.0778 30.6389C29.4868 30.6231 29.8748 30.4535 30.1642 30.1641C30.4536 29.8747 30.6231 29.4868 30.6389 29.0778C30.6547 28.6688 30.5156 28.2689 30.2494 27.9581L27.625 25.3256V12.5693C27.625 12.1384 27.4538 11.725 27.149 11.4203C26.8443 11.1155 26.431 10.9443 26 10.9443Z" fill="#F7BE45"/>
<path d="M26.0003 10.9444C25.5693 10.9444 25.156 11.1156 24.8512 11.4204C24.5465 11.7251 24.3753 12.1384 24.3753 12.5694V26C24.3771 26.4303 24.5495 26.8423 24.8546 27.1456L27.9584 30.2494C28.2693 30.5156 28.6691 30.6547 29.0781 30.6389C29.4871 30.6231 29.875 30.4536 30.1644 30.1642C30.4538 29.8748 30.6234 29.4868 30.6392 29.0779C30.655 28.6689 30.5159 28.269 30.2496 27.9581L27.6253 25.3256V12.5694C27.6253 12.1384 27.4541 11.7251 27.1493 11.4204C26.8446 11.1156 26.4313 10.9444 26.0003 10.9444ZM14.4059 11.7569C17.6801 9.08692 21.7754 7.62878 26.0003 7.62878C30.2251 7.62878 34.3205 9.08692 37.5947 11.7569L36.7822 12.5694C36.4675 12.9276 36.301 13.3922 36.3164 13.8687C36.3318 14.3452 36.528 14.798 36.8652 15.1351C37.2023 15.4723 37.6551 15.6685 38.1316 15.6839C38.6081 15.6993 39.0727 15.5328 39.4309 15.2181L40.2434 14.4056C42.5956 17.2917 44.0126 20.8259 44.3059 24.5375H39.3253C38.9374 24.5375 38.5654 24.6916 38.2911 24.9659C38.0169 25.2402 37.8628 25.6121 37.8628 26C37.8628 26.3879 38.0169 26.7599 38.2911 27.0342C38.5654 27.3084 38.9374 27.4625 39.3253 27.4625H44.314C44.0208 31.1741 42.6037 34.7083 40.2515 37.5944L39.439 36.7413C39.0867 36.389 38.6088 36.191 38.1106 36.191C37.6123 36.191 37.1345 36.389 36.7822 36.7413C36.4298 37.0936 36.2319 37.5714 36.2319 38.0697C36.2319 38.568 36.4298 39.0458 36.7822 39.3981L37.6353 40.2107C34.7497 42.5637 31.2153 43.9809 27.5034 44.2732V39.325C27.5034 38.9371 27.3493 38.5652 27.075 38.2909C26.8008 38.0166 26.4288 37.8625 26.0409 37.8625C25.653 37.8625 25.281 38.0166 25.0068 38.2909C24.7325 38.5652 24.5784 38.9371 24.5784 39.325V44.3138C20.8697 44.0184 17.3388 42.6015 14.4546 40.2513L14.8203 39.8694L15.2996 39.3981C15.5615 39.1352 15.7395 38.8005 15.8112 38.4364C15.8829 38.0723 15.8451 37.6951 15.7025 37.3525C15.5599 37.0099 15.3189 36.7173 15.01 36.5116C14.7012 36.3059 14.3382 36.1964 13.9671 36.1969C13.7214 36.1957 13.4778 36.2431 13.2505 36.3366C13.0232 36.43 12.8166 36.5676 12.6428 36.7413L11.8303 37.5944C9.47406 34.7107 8.05645 31.1752 7.76777 27.4625H12.6753C13.0632 27.4625 13.4351 27.3084 13.7094 27.0342C13.9837 26.7599 14.1378 26.3879 14.1378 26C14.1378 25.6121 13.9837 25.2402 13.7094 24.9659C13.4351 24.6916 13.0632 24.5375 12.6753 24.5375H7.68652C7.97979 20.8259 9.39686 17.2917 11.749 14.4056L12.5615 15.2181C12.7309 15.411 12.9381 15.5671 13.1702 15.6767C13.4023 15.7863 13.6544 15.8472 13.911 15.8555C14.1676 15.8638 14.4231 15.8193 14.6618 15.725C14.9005 15.6306 15.1173 15.4882 15.2988 15.3067C15.4804 15.1252 15.6227 14.9084 15.7171 14.6697C15.8115 14.431 15.8559 14.1754 15.8476 13.9189C15.8393 13.6623 15.7784 13.4102 15.6688 13.1781C15.5592 12.946 15.4031 12.7388 15.2103 12.5694L14.4059 11.7569Z" fill="white"/>
<path d="M7.68578 24.5375H12.6745C13.0624 24.5375 13.4344 24.6916 13.7087 24.9658C13.9829 25.2401 14.137 25.6121 14.137 26C14.137 26.3879 13.9829 26.7598 13.7087 27.0341C13.4344 27.3084 13.0624 27.4625 12.6745 27.4625H7.68578C7.68578 26.9831 7.62891 26.4956 7.62891 26C7.62891 25.5044 7.65328 25.0169 7.68578 24.5375ZM44.3133 24.5375C44.3133 25.0169 44.3702 25.5044 44.3702 26C44.3702 26.4956 44.3702 26.9831 44.3133 27.4625H39.3245C38.9367 27.4625 38.5647 27.3084 38.2904 27.0341C38.0161 26.7598 37.862 26.3879 37.862 26C37.862 25.6121 38.0161 25.2401 38.2904 24.9658C38.5647 24.6916 38.9367 24.5375 39.3245 24.5375H44.3133ZM24.537 44.3137V39.325C24.537 38.9371 24.6911 38.5651 24.9654 38.2908C25.2397 38.0166 25.6117 37.8625 25.9995 37.8625C26.3874 37.8625 26.7594 38.0166 27.0337 38.2908C27.3079 38.5651 27.462 38.9371 27.462 39.325V44.3137C26.9827 44.3137 26.4952 44.3706 25.9995 44.3706C25.5039 44.3706 25.0164 44.3462 24.537 44.3137Z" fill="#F7BE45"/>
</svg>
