<svg width="52" height="52" viewBox="0 0 52 52" fill="none" xmlns="http://www.w3.org/2000/svg">
<path d="M33.5586 4C35.6426 4 37.3379 5.73473 37.3379 7.86719V24.7109C32.1854 24.7109 27.7571 27.9009 25.8076 32.4453H10.7988C10.1025 32.4453 9.53906 33.0219 9.53906 33.7344C9.53906 34.4469 10.1025 35.0234 10.7988 35.0234H24.9951C24.8291 35.8568 24.7402 36.7188 24.7402 37.6016H10.7988C10.1025 37.6016 9.53906 38.1781 9.53906 38.8906C9.53906 39.6031 10.1025 40.1797 10.7988 40.1797H24.9951C25.6248 43.341 27.4145 46.1388 29.8574 48H8.2793C6.19531 48 4.5 46.1793 4.5 44.0469V16.9766H15.8379C16.5342 16.9766 17.0977 16.4 17.0977 15.6875V4H33.5586ZM10.7988 27.2891C10.1025 27.2891 9.53906 27.8656 9.53906 28.5781C9.53906 29.2906 10.1025 29.8672 10.7988 29.8672H26.4727C27.1689 29.8671 27.7324 29.2906 27.7324 28.5781C27.7324 27.8657 27.1689 27.2892 26.4727 27.2891H10.7988ZM10.7988 22.1328C10.1025 22.1328 9.53906 22.7094 9.53906 23.4219C9.53906 24.1344 10.1025 24.7109 10.7988 24.7109H31.0391C31.7354 24.7109 32.2988 24.1344 32.2988 23.4219C32.2988 22.7094 31.7354 22.1328 31.0391 22.1328H10.7988ZM20.877 16.9766C20.1806 16.9766 19.6172 17.5531 19.6172 18.2656C19.6172 18.9781 20.1806 19.5547 20.877 19.5547H31.0391C31.7354 19.5547 32.2988 18.9781 32.2988 18.2656C32.2988 17.5531 31.7354 16.9766 31.0391 16.9766H20.877ZM14.5781 14.3984H5.23828L14.5781 4.75488V14.3984ZM20.877 11.8203C20.1806 11.8203 19.6172 12.3969 19.6172 13.1094C19.6172 13.8219 20.1806 14.3984 20.877 14.3984H31.0391C31.7354 14.3984 32.2988 13.8219 32.2988 13.1094C32.2988 12.3969 31.7354 11.8203 31.0391 11.8203H20.877Z" fill="#51A8EE"/>
<path d="M37.3379 27.2891C31.7809 27.2891 27.2598 31.9153 27.2598 37.6016C27.2598 43.2878 31.7809 48 37.3379 48C42.8949 48 47.5 43.2878 47.5 37.6016C47.5 31.9153 42.8949 27.2891 37.3379 27.2891ZM42.0078 37.2239L36.9688 42.3801C36.4767 42.8836 35.6795 42.8836 35.1874 42.3801L32.6679 39.802C32.1758 39.2985 32.1758 38.4827 32.6679 37.9792C33.1599 37.4757 33.9572 37.4757 34.4492 37.9792L36.0781 39.6459L40.2265 35.401C40.7186 34.8975 41.5159 34.8975 42.0079 35.401C42.5 35.9046 42.5 36.7204 42.0078 37.2239Z" fill="#F7BE45"/>
</svg>
