<svg width="52" height="52" viewBox="0 0 52 52" fill="none" xmlns="http://www.w3.org/2000/svg">
<path fill-rule="evenodd" clip-rule="evenodd" d="M5.18434 15.3853H40.0362C41.7964 15.3853 43.2206 16.7714 43.2206 18.4654V19.9131H2V18.4654C2 16.7714 3.42418 15.3853 5.18434 15.3853ZM2 26.1043V21.4532H43.2206V26.1043H2ZM43.2206 40.9353V27.6443H2V40.9352C2 42.6293 3.42418 44 5.18434 44H40.0363C41.7964 44 43.2206 42.6293 43.2206 40.9353ZM13.1052 33.0654C14.1933 33.0654 15.0734 33.9125 15.0734 34.9443V38.7791C15.0734 39.8263 14.1933 40.6734 13.1052 40.6734H7.68061C6.60852 40.6734 5.71243 39.8263 5.71243 38.7791V34.9443C5.71243 33.9125 6.60852 33.0654 7.68061 33.0654H13.1052ZM20.482 38.0245C20.9301 38.0245 21.2821 38.3787 21.2821 38.7945C21.2821 39.2257 20.9301 39.5646 20.482 39.5646H18.1298C17.6817 39.5646 17.3297 39.2257 17.3297 38.7945C17.3297 38.3787 17.6817 38.0245 18.1298 38.0245H20.482ZM26.5627 38.0245C26.9948 38.0245 27.3628 38.3787 27.3628 38.7945C27.3628 39.2257 26.9948 39.5646 26.5627 39.5646H24.2105C23.7624 39.5646 23.4104 39.2257 23.4104 38.7945C23.4104 38.3787 23.7624 38.0245 24.2105 38.0245H26.5627ZM32.6274 38.0245C33.0754 38.0245 33.4275 38.3787 33.4275 38.7945C33.4275 39.2257 33.0754 39.5646 32.6274 39.5646H30.2751C29.8431 39.5646 29.475 39.2257 29.475 38.7945C29.475 38.3787 29.8431 38.0245 30.2751 38.0245H32.6274ZM38.7081 38.0245C39.1402 38.0245 39.5082 38.3787 39.5082 38.7945C39.5082 39.2257 39.1402 39.5646 38.7081 39.5646H36.3558C35.9078 39.5646 35.5557 39.2257 35.5557 38.7945C35.5557 38.3787 35.9078 38.0245 36.3558 38.0245H38.7081ZM13.4732 38.7791V34.9443C13.4732 34.7595 13.3133 34.6054 13.1052 34.6054H7.68061C7.4886 34.6054 7.3126 34.7595 7.3126 34.9443V38.7791C7.3126 38.9793 7.4886 39.1333 7.68061 39.1333H13.1052C13.3133 39.1333 13.4732 38.9793 13.4732 38.7791Z" fill="#51A8EE"/>
<path d="M49.9893 33.2502C50.1334 34.9289 48.8052 36.4074 47.0609 36.5305L44.8208 36.6846V18.4654C44.8208 15.9243 42.6765 13.8452 40.0362 13.8452H7.15252V13.7836C7.02458 12.0895 8.33674 10.611 10.0969 10.4878L44.8528 8.0083C46.6129 7.88507 48.1331 9.14795 48.2611 10.842L49.9893 33.2502Z" fill="#F7BE45"/>
</svg>
