<svg width="52" height="52" viewBox="0 0 52 52" fill="none" xmlns="http://www.w3.org/2000/svg">
<path d="M42.4619 6H9.53806C5.65105 6 2.5 9.22135 2.5 13.1951V38.8048C2.5 42.7785 5.65105 45.9999 9.53806 45.9999H42.4619C46.349 45.9999 49.5 42.7785 49.5 38.8048V13.1951C49.5 9.22135 46.349 6 42.4619 6Z" fill="#51A8EE"/>
<path d="M26.1598 45.9997H9.53778C7.67125 45.9997 5.88116 45.2417 4.56132 43.8924C3.24148 42.5431 2.5 40.7131 2.5 38.8049V13.195C2.49941 11.9151 2.83304 10.6583 3.46644 9.55429C4.09984 8.4503 5.01003 7.53918 6.10302 6.91504C5.51868 9.45349 5.22437 12.0527 5.226 14.6605C5.226 28.9203 13.906 41.1074 26.1598 45.9997Z" fill="#51A8EE"/>
<path d="M41.6438 18.6005H49.5004V32.1502H41.659C39.8994 32.1502 38.2119 31.4356 36.9677 30.1636C35.7234 28.8916 35.0244 27.1664 35.0244 25.3675C35.0244 24.4789 35.1956 23.5989 35.5283 22.7779C35.8609 21.9569 36.3485 21.2109 36.9632 20.5825C37.5778 19.9541 38.3076 19.4557 39.1107 19.1156C39.9138 18.7755 40.7745 18.6005 41.6438 18.6005Z" fill="#F7BE45"/>
<path d="M40.4762 28.018C42.0337 28.018 43.2962 26.7273 43.2962 25.1351C43.2962 23.5429 42.0337 22.2522 40.4762 22.2522C38.9188 22.2522 37.6562 23.5429 37.6562 25.1351C37.6562 26.7273 38.9188 28.018 40.4762 28.018Z" fill="#FFEBB9"/>
</svg>
