<svg width="52" height="52" viewBox="0 0 52 52" fill="none" xmlns="http://www.w3.org/2000/svg">
<path d="M29.25 29.25H22.75C20.9551 29.25 19.5 30.7051 19.5 32.5V45.5C19.5 47.2949 20.9551 48.75 22.75 48.75H29.25C31.0449 48.75 32.5 47.2949 32.5 45.5V32.5C32.5 30.7051 31.0449 29.25 29.25 29.25Z" fill="#51A8EE"/>
<path d="M13 34.125H6.5C4.70507 34.125 3.25 35.5801 3.25 37.375V45.5C3.25 47.2949 4.70507 48.75 6.5 48.75H13C14.7949 48.75 16.25 47.2949 16.25 45.5V37.375C16.25 35.5801 14.7949 34.125 13 34.125Z" fill="#51A8EE"/>
<path d="M45.5 21.125H39C37.2051 21.125 35.75 22.5801 35.75 24.375V45.5C35.75 47.2949 37.2051 48.75 39 48.75H45.5C47.2949 48.75 48.75 47.2949 48.75 45.5V24.375C48.75 22.5801 47.2949 21.125 45.5 21.125Z" fill="#51A8EE"/>
<path d="M9.74954 27.625C9.8849 27.6249 10.0197 27.608 10.1509 27.5746C15.9672 26.0929 21.5635 23.8529 26.7958 20.9121C32.4919 17.6933 37.6963 13.6732 42.2495 8.97487V13C42.2495 13.431 42.4207 13.8443 42.7255 14.149C43.0302 14.4538 43.4436 14.625 43.8745 14.625C44.3055 14.625 44.7188 14.4538 45.0236 14.149C45.3283 13.8443 45.4995 13.431 45.4995 13V4.875C45.4995 4.44402 45.3283 4.0307 45.0236 3.72595C44.7188 3.4212 44.3055 3.25 43.8745 3.25H35.7495C35.3186 3.25 34.9052 3.4212 34.6005 3.72595C34.2957 4.0307 34.1245 4.44402 34.1245 4.875C34.1245 5.30598 34.2957 5.7193 34.6005 6.02405C34.9052 6.3288 35.3186 6.5 35.7495 6.5H40.098C35.7225 11.0645 30.7048 14.9665 25.2033 18.083C20.219 20.8815 14.8882 23.0123 9.34816 24.4205C8.95987 24.5142 8.6197 24.7477 8.39261 25.0763C8.16553 25.405 8.06745 25.8057 8.1171 26.2021C8.16674 26.5984 8.36064 26.9626 8.66175 27.2251C8.96287 27.4876 9.35012 27.6299 9.74954 27.625Z" fill="#F7BE45"/>
</svg>
