<svg width="52" height="52" viewBox="0 0 52 52" fill="none" xmlns="http://www.w3.org/2000/svg">
<path d="M49.0004 22.7656C48.8115 19.7473 47.9903 16.8508 46.5989 14.2305H39.0752C39.8904 16.8485 40.3725 19.7475 40.4834 22.7656H49.0004Z" fill="#51A8EE"/>
<path d="M39.0752 33.9961H46.5989C47.9903 31.3758 48.8115 28.4792 49.0004 25.4609H40.4834C40.3726 28.4791 39.8905 31.378 39.0752 33.9961Z" fill="#51A8EE"/>
<path d="M27.9297 45.2266C33.5692 45.2266 38.8711 43.0304 42.8589 39.0426C43.5993 38.3022 44.2777 37.5163 44.8921 36.6914H38.0725C37.7574 37.4113 37.4142 38.1012 37.0425 38.7555C34.6715 42.9284 31.4352 45.2266 27.9297 45.2266Z" fill="#51A8EE"/>
<path d="M27.9301 3C22.2906 3 16.9887 5.19614 13.0009 9.18395C12.2605 9.92435 11.5821 10.7103 10.9678 11.5352H17.7873C18.1024 10.8152 18.4457 10.1253 18.8174 9.47109C21.1883 5.2982 24.4247 3 27.9301 3Z" fill="#51A8EE"/>
<path d="M37.7857 22.7656C37.665 19.7016 37.1332 16.7895 36.2382 14.2305H29.2773V22.7656H37.7857Z" fill="#51A8EE"/>
<path d="M29.2773 33.9961H36.2382C37.1331 31.4371 37.6649 28.525 37.7857 25.4609H29.2773V33.9961Z" fill="#51A8EE"/>
<path d="M34.6991 37.4239C34.8347 37.1853 34.9658 36.9406 35.0932 36.6914H29.2773V42.3529C31.2796 41.8226 33.1677 40.1191 34.6991 37.4239Z" fill="#51A8EE"/>
<path d="M21.1607 10.8027C21.0251 11.0413 20.8939 11.2859 20.7666 11.5352H26.5824V5.87366C24.5802 6.404 22.692 8.10744 21.1607 10.8027Z" fill="#51A8EE"/>
<path d="M35.0932 11.5351C34.9658 11.2858 34.8347 11.0412 34.6991 10.8026C33.1677 8.10744 31.2795 6.40392 29.2773 5.87366V11.5351H35.0932Z" fill="#51A8EE"/>
<path d="M37.0425 9.47109C37.4142 10.1252 37.7574 10.8152 38.0725 11.5352H44.8921C44.2777 10.7103 43.5994 9.92444 42.8589 9.18395C38.8712 5.19614 33.5692 3 27.9297 3C31.4352 3 34.6715 5.2982 37.0425 9.47109Z" fill="#51A8EE"/>
<path d="M15.531 20.5225C15.7517 18.3127 16.1755 16.1927 16.7866 14.2305H9.26283C7.87143 16.8508 7.05027 19.7473 6.86133 22.7656H7.10444C8.72072 21.2089 10.9167 20.25 13.3326 20.25C14.0909 20.25 14.8273 20.3448 15.531 20.5225Z" fill="#51A8EE"/>
<path d="M26.5821 14.2305H19.6212C18.836 16.4758 18.3304 18.9932 18.1367 21.6464C18.6484 21.9715 19.125 22.347 19.5597 22.7656H26.5821V14.2305Z" fill="#51A8EE"/>
<path d="M20.9473 33.9961H26.5826V25.4609H21.4843C22.0178 26.609 22.3164 27.8873 22.3164 29.2344C22.3164 30.9822 21.8142 32.6147 20.9473 33.9961Z" fill="#51A8EE"/>
<path d="M26.5827 36.6914H23.4014C24.7115 38.2824 25.6249 40.1628 26.0631 42.1874C26.2353 42.2512 26.4086 42.3067 26.5827 42.3529V36.6914Z" fill="#51A8EE"/>
<path d="M18.9158 36.2676C17.3814 37.4883 15.4405 38.2188 13.332 38.2188C11.2234 38.2188 9.28246 37.4883 7.74812 36.2676C4.8938 38.1082 3 41.3155 3 44.9571V47.6524C3 48.3967 3.60339 49.0001 4.34765 49.0001H22.3163C23.0605 49.0001 23.6639 48.3967 23.6639 47.6524V44.9571C23.6639 41.3155 21.7701 38.1082 18.9158 36.2676Z" fill="#F7BE45"/>
<path d="M13.332 35.5234C9.86422 35.5234 7.04297 32.7022 7.04297 29.2344C7.04297 25.7666 9.86422 22.9453 13.332 22.9453C16.7997 22.9453 19.621 25.7666 19.621 29.2344C19.621 32.7022 16.7997 35.5234 13.332 35.5234Z" fill="#F7BE45"/>
</svg>
